<svg width="225" height="80" viewBox="0 0 225 80" fill="none" xmlns="http://www.w3.org/2000/svg">
<path d="M12.9311 26.9473L23.419 16.4587L39.8791 32.9199L56.3393 16.4587L66.8272 26.9473L39.8791 53.897L12.9311 26.9473Z" fill="#006980"/>
<path d="M0.0107422 39.6185L10.4986 29.13L39.6316 58.2647L68.7647 29.1299L79.2525 39.6185L39.6316 79.2418L0.0107422 39.6185Z" fill="#006980"/>
<path d="M25.8515 14.276L40.1266 0L54.4018 14.276L40.1266 28.5521L25.8515 14.276Z" fill="#007E99"/>
<path d="M95.5471 48.5676V27.5166H99.6971V44.4175H108.178V48.5676H95.5471Z" fill="#006980"/>
<path d="M116.965 48.9585C115.581 48.9585 114.318 48.6026 113.175 47.8909C112.043 47.1792 111.135 46.2269 110.454 45.034C109.782 43.8311 109.446 42.5029 109.446 41.0494C109.446 39.9467 109.642 38.9192 110.033 37.9669C110.424 37.0046 110.96 36.1625 111.642 35.4408C112.333 34.709 113.135 34.1376 114.047 33.7266C114.96 33.3156 115.932 33.1101 116.965 33.1101C118.348 33.1101 119.606 33.466 120.739 34.1777C121.881 34.8895 122.789 35.8468 123.46 37.0497C124.142 38.2526 124.483 39.5858 124.483 41.0494C124.483 42.142 124.287 43.1645 123.896 44.1168C123.505 45.0691 122.964 45.9111 122.272 46.6429C121.591 47.3646 120.794 47.931 119.882 48.342C118.979 48.753 118.007 48.9585 116.965 48.9585ZM116.965 44.8085C117.606 44.8085 118.182 44.638 118.694 44.2972C119.205 43.9464 119.606 43.4853 119.897 42.9139C120.187 42.3425 120.333 41.721 120.333 41.0494C120.333 40.3577 120.177 39.7262 119.867 39.1548C119.566 38.5734 119.16 38.1123 118.649 37.7714C118.137 37.4306 117.576 37.2602 116.965 37.2602C116.333 37.2602 115.762 37.4356 115.25 37.7865C114.739 38.1373 114.333 38.5984 114.032 39.1698C113.742 39.7412 113.596 40.3677 113.596 41.0494C113.596 41.7611 113.747 42.4026 114.047 42.974C114.358 43.5354 114.769 43.9815 115.28 44.3123C115.792 44.6431 116.353 44.8085 116.965 44.8085Z" fill="#006980"/>
<path d="M137.919 33.5312H142.069V48.5676H137.904L137.709 47.0038C137.318 47.5852 136.817 48.0563 136.205 48.4172C135.594 48.7781 134.877 48.9585 134.055 48.9585C132.932 48.9585 131.885 48.748 130.912 48.327C129.94 47.906 129.083 47.3245 128.341 46.5828C127.599 45.841 127.018 44.9839 126.597 44.0115C126.186 43.0292 125.98 41.9766 125.98 40.8539C125.98 39.7813 126.176 38.7789 126.567 37.8466C126.958 36.9143 127.509 36.0924 128.221 35.3806C128.933 34.6689 129.75 34.1126 130.672 33.7116C131.604 33.3106 132.607 33.1101 133.679 33.1101C134.601 33.1101 135.428 33.3056 136.16 33.6966C136.902 34.0875 137.548 34.5837 138.1 35.1852L137.919 33.5312ZM133.95 44.9739C134.631 44.9739 135.248 44.7984 135.799 44.4476C136.351 44.0967 136.787 43.6256 137.107 43.0342C137.428 42.4327 137.589 41.7711 137.589 41.0494C137.589 40.3176 137.428 39.656 137.107 39.0646C136.787 38.4731 136.351 38.002 135.799 37.6511C135.248 37.3003 134.631 37.1249 133.95 37.1249C133.258 37.1249 132.632 37.3003 132.07 37.6511C131.509 38.002 131.063 38.4781 130.732 39.0796C130.401 39.671 130.236 40.3276 130.236 41.0494C130.236 41.7711 130.401 42.4327 130.732 43.0342C131.073 43.6256 131.524 44.0967 132.085 44.4476C132.647 44.7984 133.268 44.9739 133.95 44.9739Z" fill="#006980"/>
<path d="M159.06 39.0044V48.5676H154.91V40.1472C154.91 39.6159 154.779 39.1397 154.519 38.7187C154.268 38.2877 153.927 37.9468 153.496 37.6962C153.075 37.4456 152.604 37.3203 152.083 37.3203C151.561 37.3203 151.085 37.4456 150.654 37.6962C150.223 37.9468 149.882 38.2877 149.632 38.7187C149.381 39.1397 149.256 39.6159 149.256 40.1472V48.5676H145.106L145.091 33.5312H149.241L149.256 34.6439C149.757 34.1627 150.344 33.7868 151.015 33.5161C151.697 33.2455 152.414 33.1101 153.165 33.1101C154.258 33.1101 155.245 33.3758 156.128 33.9071C157.02 34.4384 157.731 35.1501 158.263 36.0422C158.794 36.9244 159.06 37.9118 159.06 39.0044Z" fill="#006980"/>
<path d="M167.027 48.5676L161.644 27.5166H165.93L169.358 40.9742L172.786 27.5166H176.591L180.019 40.9742L183.447 27.5166H187.733L182.38 48.5676H177.688L174.696 36.8692L171.719 48.5676H167.027Z" fill="#006980"/>
<path d="M189.613 33.5312H193.763V48.5676H189.613V33.5312ZM191.718 31.802C191.116 31.802 190.61 31.6015 190.199 31.2005C189.788 30.7995 189.583 30.3033 189.583 29.7119C189.583 29.1205 189.788 28.6243 190.199 28.2233C190.61 27.8223 191.111 27.6219 191.703 27.6219C192.294 27.6219 192.79 27.8223 193.191 28.2233C193.602 28.6243 193.808 29.1205 193.808 29.7119C193.808 30.3033 193.607 30.7995 193.206 31.2005C192.815 31.6015 192.319 31.802 191.718 31.802Z" fill="#006980"/>
<path d="M201.448 48.8382C200.676 48.7781 199.934 48.6177 199.222 48.357C198.511 48.0864 197.874 47.7255 197.313 47.2744C196.761 46.8133 196.33 46.262 196.02 45.6204L199.508 44.1168C199.618 44.2772 199.784 44.4526 200.004 44.6431C200.225 44.8235 200.49 44.9839 200.801 45.1242C201.122 45.2646 201.493 45.3347 201.914 45.3347C202.225 45.3347 202.525 45.2996 202.816 45.2295C203.107 45.1493 203.342 45.024 203.523 44.8536C203.703 44.6731 203.793 44.4376 203.793 44.1469C203.793 43.8261 203.678 43.5805 203.448 43.4101C203.217 43.2397 202.936 43.1144 202.605 43.0342C202.285 42.9439 201.974 42.8688 201.673 42.8086C200.751 42.6482 199.879 42.3625 199.057 41.9515C198.245 41.5305 197.583 40.9892 197.072 40.3276C196.561 39.666 196.305 38.8741 196.305 37.9519C196.305 36.9394 196.571 36.0673 197.102 35.3355C197.633 34.5937 198.325 34.0224 199.177 33.6214C200.029 33.2204 200.951 33.0199 201.944 33.0199C203.117 33.0199 204.204 33.2655 205.207 33.7567C206.209 34.2479 207.016 34.9396 207.628 35.8317L204.35 37.7714C204.219 37.581 204.049 37.4005 203.838 37.2301C203.638 37.0497 203.402 36.8993 203.132 36.779C202.871 36.6487 202.59 36.5735 202.29 36.5535C201.899 36.5234 201.543 36.5485 201.222 36.6287C200.901 36.6988 200.646 36.8342 200.455 37.0346C200.275 37.2351 200.185 37.5058 200.185 37.8466C200.185 38.1774 200.33 38.423 200.621 38.5834C200.911 38.7338 201.247 38.849 201.628 38.9292C202.009 38.9994 202.345 39.0846 202.636 39.1848C203.508 39.4655 204.325 39.8264 205.087 40.2675C205.858 40.6985 206.48 41.2298 206.951 41.8613C207.422 42.4929 207.643 43.2346 207.613 44.0867C207.613 45.0791 207.317 45.9512 206.725 46.703C206.134 47.4448 205.367 48.0112 204.425 48.4022C203.493 48.7831 202.5 48.9284 201.448 48.8382Z" fill="#006980"/>
<path d="M216.493 48.9585C215.109 48.9585 213.846 48.6026 212.703 47.8909C211.571 47.1792 210.663 46.2219 209.982 45.019C209.31 43.8161 208.974 42.4878 208.974 41.0343C208.974 39.9417 209.17 38.9192 209.561 37.9669C209.952 37.0046 210.488 36.1625 211.17 35.4408C211.861 34.709 212.663 34.1376 213.575 33.7266C214.488 33.3156 215.46 33.1101 216.493 33.1101C217.685 33.1101 218.773 33.3658 219.755 33.877C220.748 34.3882 221.585 35.0849 222.267 35.9671C222.958 36.8492 223.449 37.8466 223.74 38.9593C224.041 40.072 224.091 41.2298 223.89 42.4327H213.455C213.586 42.8738 213.786 43.2747 214.057 43.6356C214.337 43.9865 214.678 44.2671 215.079 44.4777C215.49 44.6882 215.961 44.7984 216.493 44.8085C217.014 44.8185 217.495 44.6982 217.936 44.4476C218.377 44.197 218.753 43.8612 219.064 43.4401L223.304 44.4175C222.693 45.7507 221.78 46.8434 220.567 47.6954C219.354 48.5375 217.996 48.9585 216.493 48.9585ZM213.305 39.3653H219.695C219.565 38.8641 219.344 38.413 219.034 38.012C218.723 37.611 218.347 37.2953 217.906 37.0647C217.475 36.8342 217.004 36.7189 216.493 36.7189C215.991 36.7189 215.52 36.8342 215.079 37.0647C214.648 37.2953 214.277 37.611 213.966 38.012C213.666 38.403 213.445 38.854 213.305 39.3653Z" fill="#006980"/>
</svg>
