<svg width="17" height="22" viewBox="0 0 17 22" fill="none" xmlns="http://www.w3.org/2000/svg">
<path d="M15.9219 17.25H15.3359V8.94922C15.3359 5.50439 12.7896 2.65771 9.47656 2.18408V1.23438C9.47656 0.694824 9.03955 0.257812 8.5 0.257812C7.96045 0.257812 7.52344 0.694824 7.52344 1.23438V2.18408C4.21045 2.65771 1.66406 5.50439 1.66406 8.94922V17.25H1.07812C0.645996 17.25 0.296875 17.5991 0.296875 18.0312V18.8125C0.296875 18.9199 0.384766 19.0078 0.492188 19.0078H5.76562C5.76562 20.5166 6.99121 21.7422 8.5 21.7422C10.0088 21.7422 11.2344 20.5166 11.2344 19.0078H16.5078C16.6152 19.0078 16.7031 18.9199 16.7031 18.8125V18.0312C16.7031 17.5991 16.354 17.25 15.9219 17.25ZM8.5 20.1797C7.85303 20.1797 7.32812 19.6548 7.32812 19.0078H9.67188C9.67188 19.6548 9.14697 20.1797 8.5 20.1797ZM3.42188 17.25V8.94922C3.42188 7.5918 3.94922 6.31738 4.90869 5.35791C5.86816 4.39844 7.14258 3.87109 8.5 3.87109C9.85742 3.87109 11.1318 4.39844 12.0913 5.35791C13.0508 6.31738 13.5781 7.5918 13.5781 8.94922V17.25H3.42188Z" fill="white"/>
</svg>
