<svg width="32" height="32" viewBox="0 0 32 32" fill="none" xmlns="http://www.w3.org/2000/svg">
<path d="M19.8533 24.293H8.13326C7.43993 24.293 6.78658 24.2264 6.19991 24.093C5.89324 24.053 5.51993 23.9463 5.13326 23.7996C3.35993 23.133 1.2666 21.493 1.2666 17.413V10.5463C1.2666 6.18631 3.77326 3.67969 8.13326 3.67969H19.8533C23.5333 3.67969 25.9066 5.43965 26.5466 8.63965C26.6666 9.22632 26.7199 9.85297 26.7199 10.5463V17.413C26.7199 21.7997 24.2266 24.293 19.8533 24.293ZM8.14657 5.70638C4.86657 5.70638 3.27991 7.293 3.27991 10.573V17.4397C3.27991 19.8264 4.11993 21.293 5.83992 21.9464C6.10659 22.0397 6.35993 22.1063 6.59993 22.1463C7.1066 22.253 7.5999 22.3063 8.14657 22.3063H19.8666C23.1466 22.3063 24.7332 20.7197 24.7332 17.4397V10.573C24.7332 10.013 24.6933 9.51966 24.5999 9.06633C24.1466 6.79966 22.5999 5.70638 19.8666 5.70638H8.14657Z" fill="#00191F"/>
<path d="M23.8538 28.2931H12.1338C11.0004 28.2931 9.9871 28.1331 9.12043 27.7998C7.16043 27.0664 5.88042 25.5198 5.44042 23.3065C5.37375 22.9731 5.48045 22.6265 5.72045 22.3998C5.96045 22.1598 6.30712 22.0665 6.64045 22.1465C7.08045 22.2398 7.57378 22.2931 8.13378 22.2931H19.8538C23.1338 22.2931 24.7205 20.7065 24.7205 17.4265V10.5598C24.7205 9.99979 24.6804 9.50645 24.5871 9.05312C24.5204 8.71978 24.6271 8.38646 24.8538 8.14646C25.0938 7.90646 25.4271 7.79978 25.7604 7.87978C28.9604 8.53311 30.7204 10.9065 30.7204 14.5598V21.4265C30.7204 25.7998 28.2271 28.2931 23.8538 28.2931ZM7.89379 24.2931C8.32046 25.0664 8.96045 25.6132 9.84045 25.9332C10.4804 26.1732 11.2538 26.2931 12.1471 26.2931H23.8671C27.1471 26.2931 28.7338 24.7065 28.7338 21.4265V14.5598C28.7338 12.4531 28.0804 11.0531 26.7338 10.3198C26.7338 10.3998 26.7338 10.4798 26.7338 10.5598V17.4265C26.7338 21.7865 24.2271 24.2931 19.8671 24.2931H8.14709C8.05375 24.2931 7.97379 24.2931 7.89379 24.2931Z" fill="#00191F"/>
<path d="M13.9995 18.5205C11.5062 18.5205 9.47949 16.4938 9.47949 14.0005C9.47949 11.5072 11.5062 9.48047 13.9995 9.48047C16.4928 9.48047 18.5195 11.5072 18.5195 14.0005C18.5195 16.4938 16.4928 18.5205 13.9995 18.5205ZM13.9995 11.4805C12.6128 11.4805 11.4795 12.6138 11.4795 14.0005C11.4795 15.3872 12.6128 16.5205 13.9995 16.5205C15.3862 16.5205 16.5195 15.3872 16.5195 14.0005C16.5195 12.6138 15.3862 11.4805 13.9995 11.4805Z" fill="#00191F"/>
<path d="M6.37402 17.9331C5.82736 17.9331 5.37402 17.4798 5.37402 16.9331V11.0664C5.37402 10.5197 5.82736 10.0664 6.37402 10.0664C6.92069 10.0664 7.37402 10.5197 7.37402 11.0664V16.9331C7.37402 17.4798 6.93402 17.9331 6.37402 17.9331Z" fill="#00191F"/>
<path d="M21.6133 17.9331C21.0666 17.9331 20.6133 17.4798 20.6133 16.9331V11.0664C20.6133 10.5197 21.0666 10.0664 21.6133 10.0664C22.1599 10.0664 22.6133 10.5197 22.6133 11.0664V16.9331C22.6133 17.4798 22.1733 17.9331 21.6133 17.9331Z" fill="#00191F"/>
</svg>
