<svg width="223" height="80" viewBox="0 0 223 80" fill="none" xmlns="http://www.w3.org/2000/svg">
<path d="M13.0252 27.205L23.5982 16.6161L40.1919 33.2348L56.7856 16.6162L67.3586 27.2051L40.1919 54.4127L13.0252 27.205Z" fill="#E6F2F5"/>
<path d="M0 39.9974L10.573 29.4086L39.9424 58.8222L69.3118 29.4087L79.8848 39.9976L39.9424 80L0 39.9974Z" fill="#E6F2F5"/>
<path d="M26.0503 14.4127L40.4413 0L54.8323 14.4127L40.4413 28.8253L26.0503 14.4127Z" fill="#E6F2F5"/>
<path d="M91.4344 50.5954V29.0037H95.6846V46.3387H104.37V50.5954H91.4344Z" fill="#E6F2F5"/>
<path d="M113.369 50.9964C111.952 50.9964 110.659 50.6314 109.488 49.9014C108.328 49.1713 107.399 48.1946 106.701 46.9711C106.013 45.7372 105.669 44.3749 105.669 42.8841C105.669 41.7531 105.869 40.6992 106.27 39.7224C106.67 38.7354 107.219 37.8717 107.918 37.1314C108.626 36.3808 109.447 35.7948 110.381 35.3732C111.316 34.9517 112.312 34.7409 113.369 34.7409C114.786 34.7409 116.074 35.1059 117.234 35.8359C118.405 36.5659 119.334 37.5478 120.022 38.7816C120.72 40.0154 121.069 41.3829 121.069 42.8841C121.069 44.0048 120.869 45.0535 120.468 46.0303C120.068 47.007 119.513 47.8707 118.805 48.6213C118.107 49.3616 117.291 49.9425 116.356 50.364C115.433 50.7856 114.437 50.9964 113.369 50.9964ZM113.369 46.7397C114.026 46.7397 114.616 46.5649 115.14 46.2153C115.664 45.8555 116.074 45.3825 116.372 44.7965C116.67 44.2104 116.818 43.5729 116.818 42.8841C116.818 42.1746 116.659 41.5269 116.341 40.9408C116.033 40.3445 115.617 39.8715 115.094 39.5219C114.57 39.1723 113.995 38.9975 113.369 38.9975C112.722 38.9975 112.137 39.1775 111.613 39.5373C111.09 39.8972 110.674 40.3702 110.366 40.9562C110.068 41.5423 109.92 42.1849 109.92 42.8841C109.92 43.6141 110.074 44.2721 110.381 44.8582C110.7 45.4339 111.121 45.8915 111.644 46.2308C112.168 46.5701 112.743 46.7397 113.369 46.7397Z" fill="#E6F2F5"/>
<path d="M134.83 35.1727H139.08V50.5954H134.814L134.614 48.9914C134.214 49.5878 133.701 50.071 133.074 50.4411C132.448 50.8113 131.714 50.9964 130.872 50.9964C129.722 50.9964 128.65 50.7804 127.654 50.3486C126.658 49.9168 125.78 49.3204 125.02 48.5596C124.261 47.7987 123.665 46.9196 123.234 45.9223C122.813 44.9147 122.603 43.8351 122.603 42.6836C122.603 41.5834 122.803 40.5552 123.203 39.599C123.604 38.6428 124.168 37.7997 124.897 37.0697C125.626 36.3397 126.463 35.7691 127.407 35.3578C128.362 34.9465 129.389 34.7409 130.487 34.7409C131.432 34.7409 132.279 34.9414 133.028 35.3424C133.788 35.7434 134.45 36.2523 135.015 36.8692L134.83 35.1727ZM130.764 46.9094C131.462 46.9094 132.094 46.7294 132.659 46.3696C133.223 46.0097 133.67 45.5265 133.998 44.9198C134.327 44.3029 134.491 43.6243 134.491 42.8841C134.491 42.1335 134.327 41.4549 133.998 40.8483C133.67 40.2416 133.223 39.7584 132.659 39.3985C132.094 39.0387 131.462 38.8587 130.764 38.8587C130.056 38.8587 129.414 39.0387 128.839 39.3985C128.265 39.7584 127.808 40.2468 127.469 40.8637C127.13 41.4703 126.961 42.1438 126.961 42.8841C126.961 43.6243 127.13 44.3029 127.469 44.9198C127.818 45.5265 128.28 46.0097 128.855 46.3696C129.43 46.7294 130.066 46.9094 130.764 46.9094Z" fill="#E6F2F5"/>
<path d="M156.481 40.7866V50.5954H152.23V41.9587C152.23 41.4138 152.097 40.9254 151.83 40.4935C151.573 40.0514 151.224 39.7019 150.783 39.4448C150.352 39.1878 149.869 39.0592 149.335 39.0592C148.801 39.0592 148.314 39.1878 147.872 39.4448C147.431 39.7019 147.082 40.0514 146.825 40.4935C146.568 40.9254 146.44 41.4138 146.44 41.9587V50.5954H142.19L142.174 35.1727H146.425L146.44 36.314C146.953 35.8205 147.554 35.4349 148.242 35.1573C148.94 34.8797 149.674 34.7409 150.444 34.7409C151.563 34.7409 152.574 35.0134 153.478 35.5583C154.391 36.1032 155.12 36.8332 155.664 37.7483C156.208 38.6531 156.481 39.6659 156.481 40.7866Z" fill="#E6F2F5"/>
<path d="M164.641 50.5954L159.128 29.0037H163.517L167.028 42.8069L170.539 29.0037H174.435L177.946 42.8069L181.457 29.0037H185.846L180.364 50.5954H175.559L172.495 38.5966L169.445 50.5954H164.641Z" fill="#E6F2F5"/>
<path d="M187.771 35.1727H192.022V50.5954H187.771V35.1727ZM189.927 33.3991C189.311 33.3991 188.793 33.1935 188.372 32.7822C187.951 32.371 187.741 31.862 187.741 31.2554C187.741 30.6488 187.951 30.1398 188.372 29.7285C188.793 29.3173 189.306 29.1116 189.912 29.1116C190.518 29.1116 191.026 29.3173 191.436 29.7285C191.857 30.1398 192.068 30.6488 192.068 31.2554C192.068 31.862 191.862 32.371 191.452 32.7822C191.051 33.1935 190.543 33.3991 189.927 33.3991Z" fill="#E6F2F5"/>
<path d="M199.892 50.873C199.102 50.8113 198.342 50.6468 197.613 50.3795C196.884 50.1019 196.232 49.7317 195.657 49.269C195.093 48.7961 194.651 48.2306 194.333 47.5725L197.906 46.0303C198.019 46.1948 198.188 46.3747 198.414 46.5701C198.64 46.7551 198.912 46.9196 199.23 47.0636C199.558 47.2075 199.938 47.2795 200.37 47.2795C200.688 47.2795 200.996 47.2435 201.293 47.1715C201.591 47.0893 201.832 46.9608 202.017 46.786C202.202 46.6009 202.294 46.3593 202.294 46.0611C202.294 45.7321 202.176 45.4802 201.94 45.3054C201.704 45.1306 201.417 45.0021 201.078 44.9198C200.749 44.8273 200.431 44.7502 200.123 44.6885C199.179 44.524 198.285 44.231 197.444 43.8094C196.612 43.3776 195.934 42.8224 195.411 42.1438C194.887 41.4652 194.626 40.6529 194.626 39.707C194.626 38.6685 194.898 37.774 195.442 37.0235C195.986 36.2626 196.694 35.6765 197.567 35.2653C198.439 34.854 199.384 34.6484 200.4 34.6484C201.601 34.6484 202.715 34.9003 203.742 35.4041C204.769 35.9079 205.595 36.6173 206.221 37.5324L202.864 39.5219C202.731 39.3266 202.556 39.1415 202.341 38.9667C202.135 38.7816 201.894 38.6274 201.617 38.504C201.35 38.3704 201.062 38.2932 200.754 38.2727C200.354 38.2418 199.99 38.2675 199.661 38.3498C199.333 38.4218 199.071 38.5606 198.876 38.7662C198.691 38.9718 198.599 39.2495 198.599 39.599C198.599 39.9383 198.747 40.1902 199.045 40.3547C199.343 40.509 199.687 40.6272 200.077 40.7095C200.467 40.7814 200.811 40.8688 201.109 40.9716C202.002 41.2595 202.839 41.6297 203.619 42.0821C204.409 42.5242 205.046 43.0691 205.528 43.7169C206.011 44.3646 206.237 45.1255 206.206 45.9994C206.206 47.0173 205.903 47.9118 205.297 48.683C204.692 49.4438 203.906 50.0247 202.941 50.4257C201.986 50.8164 200.97 50.9655 199.892 50.873Z" fill="#E6F2F5"/>
<path d="M215.3 50.9964C213.884 50.9964 212.59 50.6314 211.42 49.9014C210.26 49.1713 209.33 48.1894 208.632 46.9556C207.944 45.7218 207.601 44.3595 207.601 42.8686C207.601 41.7479 207.801 40.6992 208.201 39.7224C208.601 38.7354 209.151 37.8717 209.849 37.1314C210.557 36.3808 211.379 35.7948 212.313 35.3732C213.247 34.9517 214.243 34.7409 215.3 34.7409C216.522 34.7409 217.636 35.0031 218.642 35.5275C219.658 36.0518 220.516 36.7664 221.214 37.6712C221.922 38.576 222.425 39.599 222.723 40.7403C223.031 41.8816 223.082 43.0691 222.877 44.3029H212.19C212.323 44.7553 212.528 45.1666 212.806 45.5367C213.093 45.8966 213.442 46.1845 213.853 46.4004C214.274 46.6163 214.756 46.7294 215.3 46.7397C215.834 46.75 216.327 46.6266 216.779 46.3696C217.23 46.1125 217.615 45.7681 217.934 45.3363L222.276 46.3387C221.65 47.7062 220.716 48.8269 219.474 49.7009C218.231 50.5645 216.84 50.9964 215.3 50.9964ZM212.036 41.1567H218.58C218.447 40.6426 218.221 40.18 217.903 39.7687C217.585 39.3574 217.2 39.0335 216.748 38.7971C216.306 38.5606 215.824 38.4423 215.3 38.4423C214.787 38.4423 214.304 38.5606 213.853 38.7971C213.411 39.0335 213.031 39.3574 212.713 39.7687C212.405 40.1697 212.179 40.6324 212.036 41.1567Z" fill="#E6F2F5"/>
</svg>
