<svg width="20" height="20" viewBox="0 0 20 20" fill="none" xmlns="http://www.w3.org/2000/svg">
<path d="M17.5001 5.60839C17.4834 5.60839 17.4584 5.60839 17.4334 5.60839C13.0251 5.16673 8.62505 5.00006 4.26672 5.44173L2.56672 5.60839C2.21672 5.64173 1.90839 5.39173 1.87505 5.04173C1.84172 4.69173 2.09172 4.39173 2.43339 4.35839L4.13339 4.19173C8.56672 3.74173 13.0584 3.91673 17.5584 4.35839C17.9001 4.39173 18.1501 4.70006 18.1167 5.04173C18.0917 5.36673 17.8167 5.60839 17.5001 5.60839Z" fill="#007E99"/>
<path d="M7.08363 4.76699C7.05029 4.76699 7.01696 4.76699 6.97529 4.75866C6.64196 4.70033 6.40863 4.37533 6.46696 4.04199L6.65029 2.95033C6.78363 2.15033 6.96696 1.04199 8.90863 1.04199H11.092C13.042 1.04199 13.2253 2.19199 13.3503 2.95866L13.5336 4.04199C13.592 4.38366 13.3586 4.70866 13.0253 4.75866C12.6836 4.81699 12.3586 4.58366 12.3086 4.25033L12.1253 3.16699C12.0086 2.44199 11.9836 2.30033 11.1003 2.30033H8.91696C8.03363 2.30033 8.01696 2.41699 7.89196 3.15866L7.70029 4.24199C7.65029 4.55033 7.38363 4.76699 7.08363 4.76699Z" fill="#007E99"/>
<path d="M12.675 18.9586H7.325C4.41666 18.9586 4.3 17.3503 4.20833 16.0503L3.66666 7.65864C3.64166 7.31697 3.90833 7.01697 4.25 6.99197C4.6 6.97531 4.89166 7.23364 4.91666 7.57531L5.45833 15.967C5.55 17.2336 5.58333 17.7086 7.325 17.7086H12.675C14.425 17.7086 14.4583 17.2336 14.5417 15.967L15.0833 7.57531C15.1083 7.23364 15.4083 6.97531 15.75 6.99197C16.0917 7.01697 16.3583 7.30864 16.3333 7.65864L15.7917 16.0503C15.7 17.3503 15.5833 18.9586 12.675 18.9586Z" fill="#007E99"/>
<path d="M11.3834 14.375H8.6084C8.26673 14.375 7.9834 14.0917 7.9834 13.75C7.9834 13.4083 8.26673 13.125 8.6084 13.125H11.3834C11.7251 13.125 12.0084 13.4083 12.0084 13.75C12.0084 14.0917 11.7251 14.375 11.3834 14.375Z" fill="#007E99"/>
<path d="M12.0837 11.042H7.91699C7.57533 11.042 7.29199 10.7587 7.29199 10.417C7.29199 10.0753 7.57533 9.79199 7.91699 9.79199H12.0837C12.4253 9.79199 12.7087 10.0753 12.7087 10.417C12.7087 10.7587 12.4253 11.042 12.0837 11.042Z" fill="#007E99"/>
</svg>
