<svg width="16" height="4" viewBox="0 0 16 4" fill="none" xmlns="http://www.w3.org/2000/svg">
<path d="M14.0371 0.796875C13.718 0.796875 13.412 0.923632 13.1864 1.14926C12.9607 1.37489 12.834 1.68091 12.834 2C12.834 2.31909 12.9607 2.62511 13.1864 2.85074C13.412 3.07637 13.718 3.20312 14.0371 3.20312C14.3562 3.20312 14.6622 3.07637 14.8878 2.85074C15.1135 2.62511 15.2402 2.31909 15.2402 2C15.2402 1.68091 15.1135 1.37489 14.8878 1.14926C14.6622 0.923632 14.3562 0.796875 14.0371 0.796875ZM8.02148 0.796875C7.7024 0.796875 7.39638 0.923632 7.17075 1.14926C6.94512 1.37489 6.81836 1.68091 6.81836 2C6.81836 2.31909 6.94512 2.62511 7.17075 2.85074C7.39638 3.07637 7.7024 3.20312 8.02148 3.20312C8.34057 3.20312 8.64659 3.07637 8.87222 2.85074C9.09785 2.62511 9.22461 2.31909 9.22461 2C9.22461 1.68091 9.09785 1.37489 8.87222 1.14926C8.64659 0.923632 8.34057 0.796875 8.02148 0.796875ZM2.00586 0.796874C1.68677 0.796874 1.38075 0.923632 1.15512 1.14926C0.929492 1.37489 0.802734 1.68091 0.802734 2C0.802734 2.31909 0.929492 2.62511 1.15512 2.85074C1.38075 3.07637 1.68677 3.20312 2.00586 3.20312C2.32495 3.20312 2.63097 3.07637 2.8566 2.85074C3.08223 2.62511 3.20898 2.31909 3.20898 2C3.20898 1.68091 3.08223 1.37489 2.8566 1.14926C2.63097 0.923632 2.32495 0.796874 2.00586 0.796874Z" fill="#BEBEBE"/>
</svg>
