<svg width="22" height="22" viewBox="0 0 22 22" fill="none" xmlns="http://www.w3.org/2000/svg">
<path d="M19.0781 17.0156H4.29688V3.60938C4.29688 3.51484 4.21953 3.4375 4.125 3.4375H2.92188C2.82734 3.4375 2.75 3.51484 2.75 3.60938V18.3906C2.75 18.4852 2.82734 18.5625 2.92188 18.5625H19.0781C19.1727 18.5625 19.25 18.4852 19.25 18.3906V17.1875C19.25 17.093 19.1727 17.0156 19.0781 17.0156ZM6.56992 13.7006C6.63652 13.7672 6.74395 13.7672 6.8127 13.7006L9.78398 10.7443L12.5254 13.5029C12.592 13.5695 12.7016 13.5695 12.7682 13.5029L18.685 7.58828C18.7516 7.52168 18.7516 7.41211 18.685 7.34551L17.8342 6.49473C17.8019 6.46274 17.7583 6.4448 17.7128 6.4448C17.6673 6.4448 17.6237 6.46274 17.5914 6.49473L12.65 11.434L9.91289 8.67969C9.88059 8.6477 9.83696 8.62976 9.7915 8.62976C9.74604 8.62976 9.70242 8.6477 9.67012 8.67969L5.72129 12.6049C5.6893 12.6372 5.67136 12.6808 5.67136 12.7263C5.67136 12.7717 5.6893 12.8154 5.72129 12.8477L6.56992 13.7006Z" fill="white"/>
</svg>
