<svg width="24" height="24" viewBox="0 0 24 24" fill="none" xmlns="http://www.w3.org/2000/svg">
<path d="M14.6 12.5804V15.3104C14.6 17.5904 13.69 18.5004 11.41 18.5004H8.69C6.42 18.5004 5.5 17.5904 5.5 15.3104V12.5804C5.5 10.3104 6.41 9.40039 8.69 9.40039H11.42C13.69 9.40039 14.6 10.3104 14.6 12.5804Z" stroke="white" stroke-width="1.5" stroke-linecap="round" stroke-linejoin="round"/>
<path d="M18.4999 8.68V11.41C18.4999 13.69 17.5899 14.6 15.3099 14.6H14.5999V12.58C14.5999 10.31 13.6899 9.4 11.4099 9.4H9.3999V8.68C9.3999 6.4 10.3099 5.5 12.5899 5.5H15.3199C17.5899 5.5 18.4999 6.41 18.4999 8.68Z" stroke="white" stroke-width="1.5" stroke-linecap="round" stroke-linejoin="round"/>
<path d="M22 15C22 18.87 18.87 22 15 22L16.05 20.25" stroke="white" stroke-width="1.5" stroke-linecap="round" stroke-linejoin="round"/>
<path d="M2 9C2 5.13 5.13 2 9 2L7.95 3.75" stroke="white" stroke-width="1.5" stroke-linecap="round" stroke-linejoin="round"/>
</svg>
