<svg width="22" height="22" viewBox="0 0 22 22" fill="none" xmlns="http://www.w3.org/2000/svg">
<path d="M10.0835 19.0215C5.15183 19.0215 1.146 15.0157 1.146 10.084C1.146 5.15232 5.15183 1.14648 10.0835 1.14648C15.0152 1.14648 19.021 5.15232 19.021 10.084C19.021 15.0157 15.0152 19.0215 10.0835 19.0215ZM10.0835 2.52148C5.91266 2.52148 2.521 5.91315 2.521 10.084C2.521 14.2548 5.91266 17.6465 10.0835 17.6465C14.2543 17.6465 17.646 14.2548 17.646 10.084C17.646 5.91315 14.2543 2.52148 10.0835 2.52148Z" fill="#007E99"/>
<path d="M18.4798 20.8908C18.4065 20.8908 18.3332 20.8817 18.269 20.8725C17.8382 20.8175 17.059 20.5242 16.619 19.2133C16.3898 18.5258 16.4723 17.8383 16.8482 17.3158C17.224 16.7933 17.8565 16.5 18.5807 16.5C19.5157 16.5 20.249 16.8575 20.579 17.49C20.909 18.1225 20.8173 18.9292 20.2948 19.7083C19.644 20.6892 18.9382 20.8908 18.4798 20.8908ZM17.9298 18.7825C18.0857 19.2592 18.3057 19.4975 18.4523 19.5158C18.599 19.5342 18.874 19.36 19.1582 18.9475C19.424 18.5533 19.4423 18.2692 19.3782 18.1408C19.314 18.0125 19.0573 17.875 18.5807 17.875C18.2965 17.875 18.0857 17.9667 17.9665 18.1225C17.8565 18.2783 17.8382 18.5167 17.9298 18.7825Z" fill="#007E99"/>
</svg>
