<svg width="168" height="168" viewBox="0 0 168 168" fill="none" xmlns="http://www.w3.org/2000/svg">
<path d="M84 159.25C42.49 159.25 8.75 125.51 8.75 84C8.75 42.49 42.49 8.75 84 8.75C125.51 8.75 159.25 42.49 159.25 84C159.25 125.51 125.51 159.25 84 159.25ZM84 19.25C48.3 19.25 19.25 48.3 19.25 84C19.25 119.7 48.3 148.75 84 148.75C119.7 148.75 148.75 119.7 148.75 84C148.75 48.3 119.7 19.25 84 19.25Z" fill="#17A937"/>
<path d="M74.0601 109.059C72.6601 109.059 71.3301 108.499 70.3501 107.519L50.5401 87.7092C48.5101 85.6792 48.5101 82.3192 50.5401 80.2892C52.5701 78.2592 55.9301 78.2592 57.9601 80.2892L74.0601 96.3892L110.04 60.4092C112.07 58.3792 115.43 58.3792 117.46 60.4092C119.49 62.4392 119.49 65.7992 117.46 67.8292L77.7701 107.519C76.7901 108.499 75.4601 109.059 74.0601 109.059Z" fill="#17A937"/>
</svg>
