<svg width="168" height="168" viewBox="0 0 168 168" fill="none" xmlns="http://www.w3.org/2000/svg">
<path d="M84 159.25C42.49 159.25 8.75 125.51 8.75 84C8.75 42.49 42.49 8.75 84 8.75C125.51 8.75 159.25 42.49 159.25 84C159.25 125.51 125.51 159.25 84 159.25ZM84 19.25C48.3 19.25 19.25 48.3 19.25 84C19.25 119.7 48.3 148.75 84 148.75C119.7 148.75 148.75 119.7 148.75 84C148.75 48.3 119.7 19.25 84 19.25Z" fill="#FF2E2E"/>
<path d="M64.1895 109.06C62.8595 109.06 61.5295 108.57 60.4795 107.52C58.4495 105.49 58.4495 102.13 60.4795 100.1L100.1 60.4795C102.13 58.4495 105.49 58.4495 107.52 60.4795C109.55 62.5095 109.55 65.8695 107.52 67.8995L67.8995 107.52C66.9195 108.57 65.5195 109.06 64.1895 109.06Z" fill="#FF2E2E"/>
<path d="M103.81 109.06C102.48 109.06 101.15 108.57 100.1 107.52L60.4795 67.8995C58.4495 65.8695 58.4495 62.5095 60.4795 60.4795C62.5095 58.4495 65.8695 58.4495 67.8995 60.4795L107.52 100.1C109.55 102.13 109.55 105.49 107.52 107.52C106.47 108.57 105.14 109.06 103.81 109.06Z" fill="#FF2E2E"/>
</svg>
