<svg width="336" height="336" viewBox="0 0 336 336" fill="none" xmlns="http://www.w3.org/2000/svg">
<circle cx="168" cy="168" r="168" fill="#E6F2F5"/>
<path d="M188 239.665H148C111.8 239.665 96.3335 224.199 96.3335 187.999V147.999C96.3335 111.799 111.8 96.332 148 96.332H188C224.2 96.332 239.667 111.799 239.667 147.999V187.999C239.667 224.199 224.2 239.665 188 239.665ZM148 106.332C117.267 106.332 106.333 117.265 106.333 147.999V187.999C106.333 218.732 117.267 229.665 148 229.665H188C218.733 229.665 229.667 218.732 229.667 187.999V147.999C229.667 117.265 218.733 106.332 188 106.332H148Z" fill="#007E99"/>
<path d="M158.933 151.335C157.666 151.335 156.4 150.868 155.4 149.868C150.666 145.135 142.933 145.135 138.2 149.868C136.266 151.802 133.066 151.802 131.133 149.868C129.2 147.935 129.2 144.735 131.133 142.802C139.733 134.202 153.8 134.202 162.466 142.802C164.4 144.735 164.4 147.935 162.466 149.868C161.466 150.868 160.2 151.335 158.933 151.335Z" fill="#007E99"/>
<path d="M177.067 151.335C175.8 151.335 174.533 150.868 173.533 149.868C171.6 147.935 171.6 144.735 173.533 142.802C182.133 134.202 196.2 134.202 204.867 142.802C206.8 144.735 206.8 147.935 204.867 149.868C202.934 151.802 199.733 151.802 197.8 149.868C193.067 145.135 185.333 145.135 180.6 149.868C179.667 150.868 178.4 151.335 177.067 151.335Z" fill="#007E99"/>
<path d="M192 211H144C137.933 211 133 206.067 133 200C133 180.733 148.667 165 168 165C187.333 165 203 180.733 203 200C203 206.067 198.067 211 192 211ZM168 175C154.2 175 143 186.2 143 200C143 200.533 143.467 201 144 201H192C192.533 201 193 200.533 193 200C193 186.2 181.8 175 168 175Z" fill="#007E99"/>
</svg>
