<svg width="35" height="35" viewBox="0 0 35 35" fill="none" xmlns="http://www.w3.org/2000/svg">
<rect x="0.292969" y="0.355469" width="34.2921" height="34.2921" rx="17.1461" fill="#007E99"/>
<path d="M18.2915 9.20508C19.2252 9.20662 19.6984 9.21156 20.1073 9.22373L20.2683 9.229C20.4543 9.23561 20.6378 9.24391 20.8591 9.25428C21.742 9.29506 22.3442 9.43473 22.8732 9.64008C23.42 9.85095 23.8819 10.1358 24.343 10.597C24.8035 11.0581 25.0884 11.5214 25.3 12.0669C25.5046 12.5951 25.6443 13.198 25.6858 14.0809C25.6956 14.3022 25.7036 14.4857 25.7101 14.6717L25.7154 14.8328C25.7275 15.2416 25.733 15.7148 25.7348 16.6485L25.7355 17.2672C25.7355 17.3428 25.7355 17.4208 25.7355 17.5013L25.7355 17.7353L25.735 18.354C25.7334 19.2877 25.7285 19.7609 25.7163 20.1698L25.711 20.3308C25.7044 20.5168 25.6961 20.7003 25.6858 20.9216C25.6449 21.8045 25.5046 22.4067 25.3 22.9357C25.0891 23.4825 24.8035 23.9444 24.343 24.4055C23.8819 24.866 23.4179 25.1509 22.8732 25.3625C22.3442 25.5671 21.742 25.7068 20.8591 25.7483C20.6378 25.7581 20.4543 25.7661 20.2683 25.7726L20.1073 25.7779C19.6984 25.79 19.2252 25.7955 18.2915 25.7973L17.6728 25.798C17.5972 25.798 17.5193 25.798 17.4388 25.798L17.2047 25.798L16.586 25.7975C15.6523 25.7959 15.1791 25.791 14.7703 25.7788L14.6092 25.7735C14.4232 25.7669 14.2397 25.7586 14.0184 25.7483C13.1355 25.7074 12.534 25.5671 12.0044 25.3625C11.4582 25.1516 10.9956 24.866 10.5345 24.4055C10.0733 23.9444 9.78914 23.4804 9.57758 22.9357C9.37223 22.4067 9.23326 21.8045 9.19178 20.9216C9.18192 20.7003 9.17388 20.5168 9.16737 20.3308L9.16215 20.1698C9.15001 19.7609 9.14448 19.2877 9.14269 18.354L9.14258 16.6485C9.14412 15.7148 9.14906 15.2416 9.16123 14.8328L9.1665 14.6717C9.17311 14.4857 9.18141 14.3022 9.19178 14.0809C9.23256 13.1973 9.37223 12.5958 9.57758 12.0669C9.78845 11.5207 10.0733 11.0581 10.5345 10.597C10.9956 10.1358 11.4589 9.85164 12.0044 9.64008C12.5333 9.43473 13.1348 9.29576 14.0184 9.25428C14.2397 9.24442 14.4232 9.23638 14.6092 9.22987L14.7703 9.22465C15.1791 9.21251 15.6523 9.20698 16.586 9.20519L18.2915 9.20508ZM17.4388 13.3529C15.1464 13.3529 13.2904 15.211 13.2904 17.5013C13.2904 19.7936 15.1485 21.6497 17.4388 21.6497C19.7311 21.6497 21.5872 19.7915 21.5872 17.5013C21.5872 15.2089 19.729 13.3529 17.4388 13.3529ZM17.4388 15.0122C18.8135 15.0122 19.9278 16.1262 19.9278 17.5013C19.9278 18.876 18.8138 19.9903 17.4388 19.9903C16.0641 19.9903 14.9497 18.8763 14.9497 17.5013C14.9497 16.1266 16.0637 15.0122 17.4388 15.0122ZM21.7946 12.1084C21.2227 12.1084 20.7575 12.5729 20.7575 13.1448C20.7575 13.7166 21.222 14.1819 21.7946 14.1819C22.3664 14.1819 22.8317 13.7173 22.8317 13.1448C22.8317 12.5729 22.3656 12.1076 21.7946 12.1084Z" fill="white"/>
</svg>
