<svg width="35" height="35" viewBox="0 0 35 35" fill="none" xmlns="http://www.w3.org/2000/svg">
<rect y="0.558594" width="34.2921" height="34.2921" rx="17.1461" fill="#007E99"/>
<g clip-path="url(#clip0_1343_26143)">
<path d="M22.9861 23.5482H20.5289V19.6979C20.5289 18.7797 20.5103 17.5982 19.2485 17.5982C17.9675 17.5982 17.7718 18.5973 17.7718 19.6301V23.5482H15.3146V15.6306H17.675V16.7097H17.7068C18.0366 16.0875 18.8386 15.4308 20.0367 15.4308C22.5264 15.4308 22.9868 17.0694 22.9868 19.2022L22.9861 23.5482ZM12.5395 14.5472C11.7485 14.5472 11.1132 13.907 11.1132 13.1195C11.1132 12.3327 11.7492 11.6932 12.5395 11.6932C13.3276 11.6932 13.9665 12.3327 13.9665 13.1195C13.9665 13.907 13.3269 14.5472 12.5395 14.5472ZM13.7715 23.5482H11.3074V15.6306H13.7715V23.5482ZM24.2154 9.4082H10.074C9.39718 9.4082 8.84961 9.94333 8.84961 10.6036V24.8058C8.84961 25.4667 9.39718 26.0012 10.074 26.0012H24.2133C24.8895 26.0012 25.4426 25.4667 25.4426 24.8058V10.6036C25.4426 9.94333 24.8895 9.4082 24.2133 9.4082H24.2154Z" fill="white"/>
</g>
<defs>
<clipPath id="clip0_1343_26143">
<rect width="17.6992" height="17.6992" fill="white" transform="translate(8.29688 8.85547)"/>
</clipPath>
</defs>
</svg>
