<svg width="35" height="35" viewBox="0 0 35 35" fill="none" xmlns="http://www.w3.org/2000/svg">
<rect x="0.583984" y="0.482422" width="34.2918" height="34.4235" rx="17.1459" fill="#007E99"/>
<path d="M25.1276 13.1055C24.5735 13.3506 23.9859 13.5116 23.3842 13.5831C24.0181 13.2037 24.4924 12.6068 24.7188 11.9035C24.1232 12.2574 23.4713 12.5065 22.7914 12.6399C22.2175 12.0277 21.4153 11.6807 20.5761 11.6816C18.9001 11.6816 17.5407 13.0406 17.5407 14.7174C17.5407 14.9553 17.5679 15.186 17.619 15.4086C15.0952 15.2815 12.8593 14.0738 11.3617 12.237C11.0921 12.7002 10.9504 13.2268 10.9511 13.7628C10.9511 14.816 11.4872 15.7455 12.3015 16.2897C11.8194 16.2744 11.348 16.1443 10.9265 15.9099C10.9261 15.9226 10.9261 15.9354 10.9261 15.9474C10.9261 17.4186 11.9725 18.6459 13.3615 18.9245C13.1008 18.9951 12.8319 19.0307 12.5618 19.0305C12.3657 19.0305 12.1753 19.0124 11.9903 18.9769C12.3768 20.1827 13.4972 21.0605 14.826 21.0846C13.7507 21.9285 12.4228 22.3863 11.0559 22.3844C10.814 22.3846 10.5723 22.3703 10.332 22.3417C11.7198 23.2338 13.3351 23.7073 14.9848 23.7055C20.5687 23.7055 23.6219 19.0801 23.6219 15.0689C23.6219 14.9377 23.6187 14.806 23.6129 14.6761C24.2071 14.2468 24.72 13.7149 25.1276 13.1055Z" fill="white"/>
</svg>
