<svg width="41" height="41" viewBox="0 0 41 41" fill="none" xmlns="http://www.w3.org/2000/svg">
<path d="M35.5107 37.9932H5.51074C4.82741 37.9932 4.26074 37.4265 4.26074 36.7432C4.26074 36.0598 4.82741 35.4932 5.51074 35.4932H35.5107C36.1941 35.4932 36.7607 36.0598 36.7607 36.7432C36.7607 37.4265 36.1941 37.9932 35.5107 37.9932Z" fill="#00191F"/>
<path d="M9.84403 32.993H7.17741C5.57741 32.993 4.26074 31.6763 4.26074 30.0763V15.7096C4.26074 14.1096 5.57741 12.793 7.17741 12.793H9.84403C11.444 12.793 12.7607 14.1096 12.7607 15.7096V30.0763C12.7607 31.6763 11.444 32.993 9.84403 32.993ZM7.17741 15.2763C6.94408 15.2763 6.76074 15.4596 6.76074 15.693V30.0763C6.76074 30.3096 6.94408 30.493 7.17741 30.493H9.84403C10.0774 30.493 10.2607 30.3096 10.2607 30.0763V15.7096C10.2607 15.4763 10.0774 15.293 9.84403 15.293H7.17741V15.2763Z" fill="#00191F"/>
<path d="M21.844 32.9932H19.1774C17.5774 32.9932 16.2607 31.6766 16.2607 30.0766V10.3932C16.2607 8.79323 17.5774 7.47656 19.1774 7.47656H21.844C23.444 7.47656 24.7607 8.79323 24.7607 10.3932V30.0766C24.7607 31.6766 23.444 32.9932 21.844 32.9932ZM19.1774 9.97656C18.9441 9.97656 18.7607 10.1599 18.7607 10.3932V30.0766C18.7607 30.3099 18.9441 30.4932 19.1774 30.4932H21.844C22.0774 30.4932 22.2607 30.3099 22.2607 30.0766V10.3932C22.2607 10.1599 22.0774 9.97656 21.844 9.97656H19.1774Z" fill="#00191F"/>
<path d="M33.844 32.9925H31.1774C29.5774 32.9925 28.2607 31.6758 28.2607 30.0758V5.07585C28.2607 3.47585 29.5774 2.15918 31.1774 2.15918H33.844C35.444 2.15918 36.7607 3.47585 36.7607 5.07585V30.0758C36.7607 31.6758 35.444 32.9925 33.844 32.9925ZM31.1774 4.65918C30.9441 4.65918 30.7607 4.84251 30.7607 5.07585V30.0758C30.7607 30.3092 30.9441 30.4925 31.1774 30.4925H33.844C34.0774 30.4925 34.2607 30.3092 34.2607 30.0758V5.07585C34.2607 4.84251 34.0774 4.65918 33.844 4.65918H31.1774Z" fill="#00191F"/>
</svg>
