<svg width="41" height="41" viewBox="0 0 41 41" fill="none" xmlns="http://www.w3.org/2000/svg">
<path d="M30.1604 37.9759H10.8604C6.29375 37.9759 2.59375 34.2592 2.59375 29.6925V17.3425C2.59375 15.0759 3.99375 12.2259 5.79375 10.8259L14.7771 3.82587C17.4771 1.72587 21.7938 1.62587 24.5938 3.59253L34.8937 10.8092C36.8771 12.1925 38.4271 15.1592 38.4271 17.5759V29.7092C38.4271 34.2592 34.7271 37.9759 30.1604 37.9759ZM16.3104 5.79253L7.32708 12.7925C6.14375 13.7259 5.09375 15.8425 5.09375 17.3425V29.6925C5.09375 32.8759 7.67708 35.4759 10.8604 35.4759H30.1604C33.3438 35.4759 35.9271 32.8925 35.9271 29.7092V17.5759C35.9271 15.9759 34.7771 13.7592 33.4604 12.8592L23.1604 5.64253C21.2604 4.3092 18.1271 4.37587 16.3104 5.79253Z" fill="#00191F"/>
<path d="M23.0107 31.3262H18.0107C14.5607 31.3262 11.7607 28.5262 11.7607 25.0762V20.0762C11.7607 16.6262 14.5607 13.8262 18.0107 13.8262H23.0107C26.4607 13.8262 29.2607 16.6262 29.2607 20.0762V25.0762C29.2607 28.5262 26.4607 31.3262 23.0107 31.3262ZM18.0107 16.3262C15.9441 16.3262 14.2607 18.0095 14.2607 20.0762V25.0762C14.2607 27.1428 15.9441 28.8262 18.0107 28.8262H23.0107C25.0774 28.8262 26.7607 27.1428 26.7607 25.0762V20.0762C26.7607 18.0095 25.0774 16.3262 23.0107 16.3262H18.0107Z" fill="#00191F"/>
<path d="M20.5107 31.3262C19.8274 31.3262 19.2607 30.7595 19.2607 30.0762V15.0762C19.2607 14.3928 19.8274 13.8262 20.5107 13.8262C21.1941 13.8262 21.7607 14.3928 21.7607 15.0762V30.0762C21.7607 30.7595 21.1941 31.3262 20.5107 31.3262Z" fill="#00191F"/>
<path d="M28.0107 23.8262H13.0107C12.3274 23.8262 11.7607 23.2595 11.7607 22.5762C11.7607 21.8928 12.3274 21.3262 13.0107 21.3262H28.0107C28.6941 21.3262 29.2607 21.8928 29.2607 22.5762C29.2607 23.2595 28.6941 23.8262 28.0107 23.8262Z" fill="#00191F"/>
</svg>
