<svg width="14" height="23" viewBox="0 0 14 23" fill="none" xmlns="http://www.w3.org/2000/svg">
<path d="M1.3418 22.116C1.05013 21.8244 0.904297 21.479 0.904297 21.08C0.904297 20.681 1.05013 20.3361 1.3418 20.0452L9.88763 11.4993L1.31263 2.92435C1.04041 2.65213 0.904297 2.31185 0.904297 1.90352C0.904297 1.49518 1.05013 1.14518 1.3418 0.853516C1.63346 0.561849 1.9788 0.416016 2.3778 0.416016C2.7768 0.416016 3.12174 0.561849 3.41263 0.853516L13.2126 10.6827C13.3293 10.7993 13.4121 10.9257 13.4611 11.0618C13.5101 11.198 13.5342 11.3438 13.5335 11.4993C13.5335 11.6549 13.509 11.8007 13.46 11.9368C13.411 12.073 13.3285 12.1993 13.2126 12.316L3.38346 22.1452C3.11124 22.4174 2.77563 22.5535 2.37663 22.5535C1.97763 22.5535 1.63269 22.4077 1.3418 22.116Z" fill="#007E99"/>
</svg>
