<svg width="106" height="80" viewBox="0 0 106 80" fill="none" xmlns="http://www.w3.org/2000/svg">
<path d="M33.2499 64.0634L11.5624 42.3759C10.3938 41.2073 8.80885 40.5508 7.15618 40.5508C5.50352 40.5508 3.91854 41.2073 2.74993 42.3759C1.58132 43.5445 0.924805 45.1295 0.924805 46.7822C0.924805 47.6005 1.08599 48.4108 1.39914 49.1668C1.7123 49.9228 2.1713 50.6098 2.74993 51.1884L28.8749 77.3134C31.3124 79.7509 35.2499 79.7509 37.6874 77.3134L103.812 11.1884C104.981 10.0198 105.638 8.43482 105.638 6.78216C105.638 5.1295 104.981 3.54452 103.812 2.37591C102.644 1.2073 101.059 0.550781 99.4062 0.550781C97.7535 0.550781 96.1685 1.2073 94.9999 2.37591L33.2499 64.0634Z" fill="#007E99"/>
</svg>
