<svg width="215" height="36" viewBox="0 0 215 36" fill="none" xmlns="http://www.w3.org/2000/svg">
<path d="M13.2127 26.7097C11.5087 26.7097 9.90667 26.3737 8.40667 25.7017C6.90667 25.0177 5.58667 24.0757 4.44667 22.8757C3.31867 21.6757 2.43067 20.2897 1.78267 18.7177C1.14667 17.1337 0.828672 15.4417 0.828672 13.6417C0.828672 11.8297 1.14667 10.1377 1.78267 8.5657C2.43067 6.9817 3.31867 5.5957 4.44667 4.4077C5.58667 3.2077 6.90667 2.2717 8.40667 1.5997C9.90667 0.915697 11.5087 0.573697 13.2127 0.573697C15.2527 0.573697 17.1307 1.0477 18.8467 1.9957C20.5627 2.9317 21.9847 4.1857 23.1127 5.7577L19.1887 7.8637C18.4807 6.9877 17.5987 6.2857 16.5427 5.7577C15.4987 5.2297 14.3887 4.9657 13.2127 4.9657C12.1087 4.9657 11.0707 5.1937 10.0987 5.6497C9.12667 6.0937 8.27467 6.7177 7.54267 7.5217C6.81067 8.3137 6.24067 9.2377 5.83267 10.2937C5.42467 11.3377 5.22067 12.4537 5.22067 13.6417C5.22067 14.8417 5.42467 15.9637 5.83267 17.0077C6.25267 18.0517 6.82867 18.9757 7.56067 19.7797C8.29267 20.5717 9.13867 21.1957 10.0987 21.6517C11.0707 22.0957 12.1087 22.3177 13.2127 22.3177C14.4127 22.3177 15.5287 22.0537 16.5607 21.5257C17.6047 20.9857 18.4807 20.2777 19.1887 19.4017L23.1127 21.5257C21.9847 23.0857 20.5627 24.3397 18.8467 25.2877C17.1307 26.2357 15.2527 26.7097 13.2127 26.7097ZM33.4804 26.7097C31.8244 26.7097 30.3124 26.2837 28.9444 25.4317C27.5884 24.5797 26.5024 23.4397 25.6864 22.0117C24.8824 20.5717 24.4804 18.9817 24.4804 17.2417C24.4804 15.9217 24.7144 14.6917 25.1824 13.5517C25.6504 12.3997 26.2924 11.3917 27.1084 10.5277C27.9364 9.6517 28.8964 8.9677 29.9884 8.4757C31.0804 7.9837 32.2444 7.7377 33.4804 7.7377C35.1364 7.7377 36.6424 8.1637 37.9984 9.0157C39.3664 9.8677 40.4524 11.0137 41.2564 12.4537C42.0724 13.8937 42.4804 15.4897 42.4804 17.2417C42.4804 18.5497 42.2464 19.7737 41.7784 20.9137C41.3104 22.0537 40.6624 23.0617 39.8344 23.9377C39.0184 24.8017 38.0644 25.4797 36.9724 25.9717C35.8924 26.4637 34.7284 26.7097 33.4804 26.7097ZM33.4804 22.3177C34.3564 22.3177 35.1424 22.0837 35.8384 21.6157C36.5344 21.1477 37.0804 20.5297 37.4764 19.7617C37.8844 18.9937 38.0884 18.1537 38.0884 17.2417C38.0884 16.3057 37.8784 15.4537 37.4584 14.6857C37.0504 13.9057 36.4924 13.2877 35.7844 12.8317C35.0884 12.3637 34.3204 12.1297 33.4804 12.1297C32.6164 12.1297 31.8364 12.3637 31.1404 12.8317C30.4444 13.2997 29.8924 13.9237 29.4844 14.7037C29.0764 15.4837 28.8724 16.3297 28.8724 17.2417C28.8724 18.1897 29.0824 19.0477 29.5024 19.8157C29.9224 20.5837 30.4804 21.1957 31.1764 21.6517C31.8844 22.0957 32.6524 22.3177 33.4804 22.3177ZM45.283 26.2417V8.2417H49.675V9.8437C50.287 9.1957 51.019 8.6857 51.871 8.3137C52.723 7.9297 53.641 7.7377 54.625 7.7377C55.873 7.7377 57.019 8.0317 58.063 8.6197C59.119 9.2077 59.959 9.9937 60.583 10.9777C61.219 9.9937 62.059 9.2077 63.103 8.6197C64.147 8.0317 65.293 7.7377 66.541 7.7377C67.861 7.7377 69.055 8.0617 70.123 8.7097C71.203 9.3457 72.061 10.2037 72.697 11.2837C73.345 12.3517 73.669 13.5457 73.669 14.8657V26.2417H69.277V16.0357C69.277 15.3397 69.103 14.7037 68.755 14.1277C68.419 13.5397 67.963 13.0717 67.387 12.7237C66.823 12.3637 66.187 12.1837 65.479 12.1837C64.771 12.1837 64.129 12.3577 63.553 12.7057C62.989 13.0417 62.533 13.4977 62.185 14.0737C61.837 14.6497 61.663 15.3037 61.663 16.0357V26.2417H57.271V16.0357C57.271 15.3037 57.103 14.6497 56.767 14.0737C56.431 13.4977 55.975 13.0417 55.399 12.7057C54.823 12.3577 54.181 12.1837 53.473 12.1837C52.777 12.1837 52.141 12.3637 51.565 12.7237C50.989 13.0717 50.527 13.5397 50.179 14.1277C49.843 14.7037 49.675 15.3397 49.675 16.0357V26.2417H45.283ZM77.2752 8.2417H81.6672V26.2417H77.2752V8.2417ZM79.5072 5.9197C78.8592 5.9197 78.3132 5.7097 77.8692 5.2897C77.4252 4.8577 77.2032 4.3177 77.2032 3.6697C77.2032 3.0337 77.4252 2.4997 77.8692 2.0677C78.3132 1.6357 78.8532 1.4197 79.4892 1.4197C80.1252 1.4197 80.6592 1.6357 81.0912 2.0677C81.5352 2.4997 81.7572 3.0337 81.7572 3.6697C81.7572 4.3177 81.5412 4.8577 81.1092 5.2897C80.6772 5.7097 80.1432 5.9197 79.5072 5.9197ZM102.341 14.8657V26.2417H97.9494V16.0177C97.9494 15.3097 97.7754 14.6677 97.4274 14.0917C97.0794 13.5037 96.6114 13.0417 96.0234 12.7057C95.4474 12.3577 94.8054 12.1837 94.0974 12.1837C93.3894 12.1837 92.7414 12.3577 92.1534 12.7057C91.5774 13.0417 91.1154 13.5037 90.7674 14.0917C90.4314 14.6677 90.2634 15.3097 90.2634 16.0177V26.2417H85.8714L85.8534 8.2417H90.2454L90.2634 9.8437C90.8754 9.1957 91.6074 8.6857 92.4594 8.3137C93.3114 7.9297 94.2294 7.7377 95.2134 7.7377C96.5214 7.7377 97.7154 8.0617 98.7954 8.7097C99.8754 9.3457 100.733 10.2037 101.369 11.2837C102.017 12.3517 102.341 13.5457 102.341 14.8657ZM118.932 8.2417H123.324V26.5837C123.324 27.8797 123.06 29.0557 122.532 30.1117C122.004 31.1797 121.284 32.0917 120.372 32.8477C119.46 33.6157 118.416 34.2037 117.24 34.6117C116.064 35.0317 114.828 35.2417 113.532 35.2417C112.272 35.2417 111.06 34.9837 109.896 34.4677C108.732 33.9517 107.7 33.2437 106.8 32.3437C105.912 31.4557 105.234 30.4417 104.766 29.3017L108.78 27.4837C109.02 28.1437 109.38 28.7197 109.86 29.2117C110.352 29.7157 110.916 30.1057 111.552 30.3817C112.188 30.6697 112.848 30.8137 113.532 30.8137C114.228 30.8137 114.894 30.7177 115.53 30.5257C116.178 30.3337 116.76 30.0517 117.276 29.6797C117.792 29.3197 118.194 28.8757 118.482 28.3477C118.782 27.8317 118.932 27.2437 118.932 26.5837V24.0457C118.368 24.8377 117.66 25.4797 116.808 25.9717C115.956 26.4637 114.972 26.7097 113.856 26.7097C112.56 26.7097 111.348 26.4637 110.22 25.9717C109.092 25.4797 108.096 24.8017 107.232 23.9377C106.38 23.0617 105.708 22.0537 105.216 20.9137C104.736 19.7737 104.496 18.5497 104.496 17.2417C104.496 15.9337 104.736 14.7097 105.216 13.5697C105.708 12.4297 106.38 11.4277 107.232 10.5637C108.096 9.6877 109.092 9.0037 110.22 8.5117C111.348 8.0197 112.56 7.7737 113.856 7.7737C114.972 7.7737 115.956 8.0197 116.808 8.5117C117.66 8.9917 118.368 9.6277 118.932 10.4197V8.2417ZM113.91 22.4797C114.834 22.4797 115.65 22.2457 116.358 21.7777C117.078 21.2977 117.642 20.6617 118.05 19.8697C118.458 19.0657 118.662 18.1897 118.662 17.2417C118.662 16.2817 118.452 15.4057 118.032 14.6137C117.624 13.8217 117.06 13.1857 116.34 12.7057C115.632 12.2257 114.822 11.9857 113.91 11.9857C113.01 11.9857 112.188 12.2257 111.444 12.7057C110.7 13.1737 110.106 13.8037 109.662 14.5957C109.218 15.3877 108.996 16.2697 108.996 17.2417C108.996 18.2137 109.218 19.0957 109.662 19.8877C110.106 20.6797 110.7 21.3097 111.444 21.7777C112.188 22.2457 113.01 22.4797 113.91 22.4797ZM145.375 26.7097C143.983 26.7097 142.645 26.4937 141.361 26.0617C140.089 25.6177 138.973 24.9877 138.013 24.1717C137.053 23.3437 136.363 22.3537 135.943 21.2017L140.065 19.6897C140.233 20.1697 140.575 20.6077 141.091 21.0037C141.607 21.3997 142.237 21.7177 142.981 21.9577C143.725 22.1977 144.523 22.3177 145.375 22.3177C146.251 22.3177 147.067 22.1857 147.823 21.9217C148.591 21.6457 149.209 21.2677 149.677 20.7877C150.145 20.2957 150.379 19.7257 150.379 19.0777C150.379 18.4177 150.133 17.8777 149.641 17.4577C149.149 17.0257 148.519 16.6837 147.751 16.4317C146.983 16.1797 146.191 15.9877 145.375 15.8557C143.587 15.5797 141.985 15.1537 140.569 14.5777C139.153 14.0017 138.031 13.2037 137.203 12.1837C136.387 11.1637 135.979 9.8437 135.979 8.2237C135.979 6.6997 136.417 5.3677 137.293 4.2277C138.169 3.0877 139.321 2.1997 140.749 1.5637C142.177 0.927699 143.719 0.609699 145.375 0.609699C146.755 0.609699 148.087 0.825699 149.371 1.2577C150.655 1.6897 151.777 2.3197 152.737 3.1477C153.709 3.9757 154.405 4.9717 154.825 6.1357L150.685 7.6297C150.517 7.1497 150.175 6.7117 149.659 6.3157C149.143 5.9197 148.513 5.6077 147.769 5.3797C147.025 5.1397 146.227 5.0197 145.375 5.0197C144.523 5.0077 143.713 5.1457 142.945 5.4337C142.189 5.7097 141.571 6.0877 141.091 6.5677C140.611 7.0477 140.371 7.5997 140.371 8.2237C140.371 9.0277 140.593 9.6337 141.037 10.0417C141.493 10.4497 142.099 10.7497 142.855 10.9417C143.611 11.1217 144.451 11.2897 145.375 11.4457C147.055 11.7097 148.609 12.1537 150.037 12.7777C151.465 13.4017 152.611 14.2357 153.475 15.2797C154.339 16.3117 154.771 17.5777 154.771 19.0777C154.771 20.6017 154.339 21.9397 153.475 23.0917C152.611 24.2317 151.465 25.1197 150.037 25.7557C148.609 26.3917 147.055 26.7097 145.375 26.7097ZM166.125 26.7097C164.469 26.7097 162.957 26.2837 161.589 25.4317C160.233 24.5797 159.147 23.4397 158.331 22.0117C157.527 20.5717 157.125 18.9817 157.125 17.2417C157.125 15.9217 157.359 14.6917 157.827 13.5517C158.295 12.3997 158.937 11.3917 159.753 10.5277C160.581 9.6517 161.541 8.9677 162.633 8.4757C163.725 7.9837 164.889 7.7377 166.125 7.7377C167.781 7.7377 169.287 8.1637 170.643 9.0157C172.011 9.8677 173.097 11.0137 173.901 12.4537C174.717 13.8937 175.125 15.4897 175.125 17.2417C175.125 18.5497 174.891 19.7737 174.423 20.9137C173.955 22.0537 173.307 23.0617 172.479 23.9377C171.663 24.8017 170.709 25.4797 169.617 25.9717C168.537 26.4637 167.373 26.7097 166.125 26.7097ZM166.125 22.3177C167.001 22.3177 167.787 22.0837 168.483 21.6157C169.179 21.1477 169.725 20.5297 170.121 19.7617C170.529 18.9937 170.733 18.1537 170.733 17.2417C170.733 16.3057 170.523 15.4537 170.103 14.6857C169.695 13.9057 169.137 13.2877 168.429 12.8317C167.733 12.3637 166.965 12.1297 166.125 12.1297C165.261 12.1297 164.481 12.3637 163.785 12.8317C163.089 13.2997 162.537 13.9237 162.129 14.7037C161.721 15.4837 161.517 16.3297 161.517 17.2417C161.517 18.1897 161.727 19.0477 162.147 19.8157C162.567 20.5837 163.125 21.1957 163.821 21.6517C164.529 22.0957 165.297 22.3177 166.125 22.3177ZM185.918 26.7097C184.262 26.7097 182.75 26.2837 181.382 25.4317C180.026 24.5797 178.94 23.4397 178.124 22.0117C177.32 20.5717 176.918 18.9817 176.918 17.2417C176.918 15.9217 177.152 14.6917 177.62 13.5517C178.088 12.3997 178.73 11.3917 179.546 10.5277C180.374 9.6517 181.334 8.9677 182.426 8.4757C183.518 7.9837 184.682 7.7377 185.918 7.7377C187.574 7.7377 189.08 8.1637 190.436 9.0157C191.804 9.8677 192.89 11.0137 193.694 12.4537C194.51 13.8937 194.918 15.4897 194.918 17.2417C194.918 18.5497 194.684 19.7737 194.216 20.9137C193.748 22.0537 193.1 23.0617 192.272 23.9377C191.456 24.8017 190.502 25.4797 189.41 25.9717C188.33 26.4637 187.166 26.7097 185.918 26.7097ZM185.918 22.3177C186.794 22.3177 187.58 22.0837 188.276 21.6157C188.972 21.1477 189.518 20.5297 189.914 19.7617C190.322 18.9937 190.526 18.1537 190.526 17.2417C190.526 16.3057 190.316 15.4537 189.896 14.6857C189.488 13.9057 188.93 13.2877 188.222 12.8317C187.526 12.3637 186.758 12.1297 185.918 12.1297C185.054 12.1297 184.274 12.3637 183.578 12.8317C182.882 13.2997 182.33 13.9237 181.922 14.7037C181.514 15.4837 181.31 16.3297 181.31 17.2417C181.31 18.1897 181.52 19.0477 181.94 19.8157C182.36 20.5837 182.918 21.1957 183.614 21.6517C184.322 22.0957 185.09 22.3177 185.918 22.3177ZM214.209 14.8657V26.2417H209.817V16.0177C209.817 15.3097 209.643 14.6677 209.295 14.0917C208.947 13.5037 208.479 13.0417 207.891 12.7057C207.315 12.3577 206.673 12.1837 205.965 12.1837C205.257 12.1837 204.609 12.3577 204.021 12.7057C203.445 13.0417 202.983 13.5037 202.635 14.0917C202.299 14.6677 202.131 15.3097 202.131 16.0177V26.2417H197.739L197.721 8.2417H202.113L202.131 9.8437C202.743 9.1957 203.475 8.6857 204.327 8.3137C205.179 7.9297 206.097 7.7377 207.081 7.7377C208.389 7.7377 209.583 8.0617 210.663 8.7097C211.743 9.3457 212.601 10.2037 213.237 11.2837C213.885 12.3517 214.209 13.5457 214.209 14.8657Z" fill="url(#paint0_linear_784_15200)"/>
<path d="M13.2127 26.7097C11.5087 26.7097 9.90667 26.3737 8.40667 25.7017C6.90667 25.0177 5.58667 24.0757 4.44667 22.8757C3.31867 21.6757 2.43067 20.2897 1.78267 18.7177C1.14667 17.1337 0.828672 15.4417 0.828672 13.6417C0.828672 11.8297 1.14667 10.1377 1.78267 8.5657C2.43067 6.9817 3.31867 5.5957 4.44667 4.4077C5.58667 3.2077 6.90667 2.2717 8.40667 1.5997C9.90667 0.915697 11.5087 0.573697 13.2127 0.573697C15.2527 0.573697 17.1307 1.0477 18.8467 1.9957C20.5627 2.9317 21.9847 4.1857 23.1127 5.7577L19.1887 7.8637C18.4807 6.9877 17.5987 6.2857 16.5427 5.7577C15.4987 5.2297 14.3887 4.9657 13.2127 4.9657C12.1087 4.9657 11.0707 5.1937 10.0987 5.6497C9.12667 6.0937 8.27467 6.7177 7.54267 7.5217C6.81067 8.3137 6.24067 9.2377 5.83267 10.2937C5.42467 11.3377 5.22067 12.4537 5.22067 13.6417C5.22067 14.8417 5.42467 15.9637 5.83267 17.0077C6.25267 18.0517 6.82867 18.9757 7.56067 19.7797C8.29267 20.5717 9.13867 21.1957 10.0987 21.6517C11.0707 22.0957 12.1087 22.3177 13.2127 22.3177C14.4127 22.3177 15.5287 22.0537 16.5607 21.5257C17.6047 20.9857 18.4807 20.2777 19.1887 19.4017L23.1127 21.5257C21.9847 23.0857 20.5627 24.3397 18.8467 25.2877C17.1307 26.2357 15.2527 26.7097 13.2127 26.7097ZM33.4804 26.7097C31.8244 26.7097 30.3124 26.2837 28.9444 25.4317C27.5884 24.5797 26.5024 23.4397 25.6864 22.0117C24.8824 20.5717 24.4804 18.9817 24.4804 17.2417C24.4804 15.9217 24.7144 14.6917 25.1824 13.5517C25.6504 12.3997 26.2924 11.3917 27.1084 10.5277C27.9364 9.6517 28.8964 8.9677 29.9884 8.4757C31.0804 7.9837 32.2444 7.7377 33.4804 7.7377C35.1364 7.7377 36.6424 8.1637 37.9984 9.0157C39.3664 9.8677 40.4524 11.0137 41.2564 12.4537C42.0724 13.8937 42.4804 15.4897 42.4804 17.2417C42.4804 18.5497 42.2464 19.7737 41.7784 20.9137C41.3104 22.0537 40.6624 23.0617 39.8344 23.9377C39.0184 24.8017 38.0644 25.4797 36.9724 25.9717C35.8924 26.4637 34.7284 26.7097 33.4804 26.7097ZM33.4804 22.3177C34.3564 22.3177 35.1424 22.0837 35.8384 21.6157C36.5344 21.1477 37.0804 20.5297 37.4764 19.7617C37.8844 18.9937 38.0884 18.1537 38.0884 17.2417C38.0884 16.3057 37.8784 15.4537 37.4584 14.6857C37.0504 13.9057 36.4924 13.2877 35.7844 12.8317C35.0884 12.3637 34.3204 12.1297 33.4804 12.1297C32.6164 12.1297 31.8364 12.3637 31.1404 12.8317C30.4444 13.2997 29.8924 13.9237 29.4844 14.7037C29.0764 15.4837 28.8724 16.3297 28.8724 17.2417C28.8724 18.1897 29.0824 19.0477 29.5024 19.8157C29.9224 20.5837 30.4804 21.1957 31.1764 21.6517C31.8844 22.0957 32.6524 22.3177 33.4804 22.3177ZM45.283 26.2417V8.2417H49.675V9.8437C50.287 9.1957 51.019 8.6857 51.871 8.3137C52.723 7.9297 53.641 7.7377 54.625 7.7377C55.873 7.7377 57.019 8.0317 58.063 8.6197C59.119 9.2077 59.959 9.9937 60.583 10.9777C61.219 9.9937 62.059 9.2077 63.103 8.6197C64.147 8.0317 65.293 7.7377 66.541 7.7377C67.861 7.7377 69.055 8.0617 70.123 8.7097C71.203 9.3457 72.061 10.2037 72.697 11.2837C73.345 12.3517 73.669 13.5457 73.669 14.8657V26.2417H69.277V16.0357C69.277 15.3397 69.103 14.7037 68.755 14.1277C68.419 13.5397 67.963 13.0717 67.387 12.7237C66.823 12.3637 66.187 12.1837 65.479 12.1837C64.771 12.1837 64.129 12.3577 63.553 12.7057C62.989 13.0417 62.533 13.4977 62.185 14.0737C61.837 14.6497 61.663 15.3037 61.663 16.0357V26.2417H57.271V16.0357C57.271 15.3037 57.103 14.6497 56.767 14.0737C56.431 13.4977 55.975 13.0417 55.399 12.7057C54.823 12.3577 54.181 12.1837 53.473 12.1837C52.777 12.1837 52.141 12.3637 51.565 12.7237C50.989 13.0717 50.527 13.5397 50.179 14.1277C49.843 14.7037 49.675 15.3397 49.675 16.0357V26.2417H45.283ZM77.2752 8.2417H81.6672V26.2417H77.2752V8.2417ZM79.5072 5.9197C78.8592 5.9197 78.3132 5.7097 77.8692 5.2897C77.4252 4.8577 77.2032 4.3177 77.2032 3.6697C77.2032 3.0337 77.4252 2.4997 77.8692 2.0677C78.3132 1.6357 78.8532 1.4197 79.4892 1.4197C80.1252 1.4197 80.6592 1.6357 81.0912 2.0677C81.5352 2.4997 81.7572 3.0337 81.7572 3.6697C81.7572 4.3177 81.5412 4.8577 81.1092 5.2897C80.6772 5.7097 80.1432 5.9197 79.5072 5.9197ZM102.341 14.8657V26.2417H97.9494V16.0177C97.9494 15.3097 97.7754 14.6677 97.4274 14.0917C97.0794 13.5037 96.6114 13.0417 96.0234 12.7057C95.4474 12.3577 94.8054 12.1837 94.0974 12.1837C93.3894 12.1837 92.7414 12.3577 92.1534 12.7057C91.5774 13.0417 91.1154 13.5037 90.7674 14.0917C90.4314 14.6677 90.2634 15.3097 90.2634 16.0177V26.2417H85.8714L85.8534 8.2417H90.2454L90.2634 9.8437C90.8754 9.1957 91.6074 8.6857 92.4594 8.3137C93.3114 7.9297 94.2294 7.7377 95.2134 7.7377C96.5214 7.7377 97.7154 8.0617 98.7954 8.7097C99.8754 9.3457 100.733 10.2037 101.369 11.2837C102.017 12.3517 102.341 13.5457 102.341 14.8657ZM118.932 8.2417H123.324V26.5837C123.324 27.8797 123.06 29.0557 122.532 30.1117C122.004 31.1797 121.284 32.0917 120.372 32.8477C119.46 33.6157 118.416 34.2037 117.24 34.6117C116.064 35.0317 114.828 35.2417 113.532 35.2417C112.272 35.2417 111.06 34.9837 109.896 34.4677C108.732 33.9517 107.7 33.2437 106.8 32.3437C105.912 31.4557 105.234 30.4417 104.766 29.3017L108.78 27.4837C109.02 28.1437 109.38 28.7197 109.86 29.2117C110.352 29.7157 110.916 30.1057 111.552 30.3817C112.188 30.6697 112.848 30.8137 113.532 30.8137C114.228 30.8137 114.894 30.7177 115.53 30.5257C116.178 30.3337 116.76 30.0517 117.276 29.6797C117.792 29.3197 118.194 28.8757 118.482 28.3477C118.782 27.8317 118.932 27.2437 118.932 26.5837V24.0457C118.368 24.8377 117.66 25.4797 116.808 25.9717C115.956 26.4637 114.972 26.7097 113.856 26.7097C112.56 26.7097 111.348 26.4637 110.22 25.9717C109.092 25.4797 108.096 24.8017 107.232 23.9377C106.38 23.0617 105.708 22.0537 105.216 20.9137C104.736 19.7737 104.496 18.5497 104.496 17.2417C104.496 15.9337 104.736 14.7097 105.216 13.5697C105.708 12.4297 106.38 11.4277 107.232 10.5637C108.096 9.6877 109.092 9.0037 110.22 8.5117C111.348 8.0197 112.56 7.7737 113.856 7.7737C114.972 7.7737 115.956 8.0197 116.808 8.5117C117.66 8.9917 118.368 9.6277 118.932 10.4197V8.2417ZM113.91 22.4797C114.834 22.4797 115.65 22.2457 116.358 21.7777C117.078 21.2977 117.642 20.6617 118.05 19.8697C118.458 19.0657 118.662 18.1897 118.662 17.2417C118.662 16.2817 118.452 15.4057 118.032 14.6137C117.624 13.8217 117.06 13.1857 116.34 12.7057C115.632 12.2257 114.822 11.9857 113.91 11.9857C113.01 11.9857 112.188 12.2257 111.444 12.7057C110.7 13.1737 110.106 13.8037 109.662 14.5957C109.218 15.3877 108.996 16.2697 108.996 17.2417C108.996 18.2137 109.218 19.0957 109.662 19.8877C110.106 20.6797 110.7 21.3097 111.444 21.7777C112.188 22.2457 113.01 22.4797 113.91 22.4797ZM145.375 26.7097C143.983 26.7097 142.645 26.4937 141.361 26.0617C140.089 25.6177 138.973 24.9877 138.013 24.1717C137.053 23.3437 136.363 22.3537 135.943 21.2017L140.065 19.6897C140.233 20.1697 140.575 20.6077 141.091 21.0037C141.607 21.3997 142.237 21.7177 142.981 21.9577C143.725 22.1977 144.523 22.3177 145.375 22.3177C146.251 22.3177 147.067 22.1857 147.823 21.9217C148.591 21.6457 149.209 21.2677 149.677 20.7877C150.145 20.2957 150.379 19.7257 150.379 19.0777C150.379 18.4177 150.133 17.8777 149.641 17.4577C149.149 17.0257 148.519 16.6837 147.751 16.4317C146.983 16.1797 146.191 15.9877 145.375 15.8557C143.587 15.5797 141.985 15.1537 140.569 14.5777C139.153 14.0017 138.031 13.2037 137.203 12.1837C136.387 11.1637 135.979 9.8437 135.979 8.2237C135.979 6.6997 136.417 5.3677 137.293 4.2277C138.169 3.0877 139.321 2.1997 140.749 1.5637C142.177 0.927699 143.719 0.609699 145.375 0.609699C146.755 0.609699 148.087 0.825699 149.371 1.2577C150.655 1.6897 151.777 2.3197 152.737 3.1477C153.709 3.9757 154.405 4.9717 154.825 6.1357L150.685 7.6297C150.517 7.1497 150.175 6.7117 149.659 6.3157C149.143 5.9197 148.513 5.6077 147.769 5.3797C147.025 5.1397 146.227 5.0197 145.375 5.0197C144.523 5.0077 143.713 5.1457 142.945 5.4337C142.189 5.7097 141.571 6.0877 141.091 6.5677C140.611 7.0477 140.371 7.5997 140.371 8.2237C140.371 9.0277 140.593 9.6337 141.037 10.0417C141.493 10.4497 142.099 10.7497 142.855 10.9417C143.611 11.1217 144.451 11.2897 145.375 11.4457C147.055 11.7097 148.609 12.1537 150.037 12.7777C151.465 13.4017 152.611 14.2357 153.475 15.2797C154.339 16.3117 154.771 17.5777 154.771 19.0777C154.771 20.6017 154.339 21.9397 153.475 23.0917C152.611 24.2317 151.465 25.1197 150.037 25.7557C148.609 26.3917 147.055 26.7097 145.375 26.7097ZM166.125 26.7097C164.469 26.7097 162.957 26.2837 161.589 25.4317C160.233 24.5797 159.147 23.4397 158.331 22.0117C157.527 20.5717 157.125 18.9817 157.125 17.2417C157.125 15.9217 157.359 14.6917 157.827 13.5517C158.295 12.3997 158.937 11.3917 159.753 10.5277C160.581 9.6517 161.541 8.9677 162.633 8.4757C163.725 7.9837 164.889 7.7377 166.125 7.7377C167.781 7.7377 169.287 8.1637 170.643 9.0157C172.011 9.8677 173.097 11.0137 173.901 12.4537C174.717 13.8937 175.125 15.4897 175.125 17.2417C175.125 18.5497 174.891 19.7737 174.423 20.9137C173.955 22.0537 173.307 23.0617 172.479 23.9377C171.663 24.8017 170.709 25.4797 169.617 25.9717C168.537 26.4637 167.373 26.7097 166.125 26.7097ZM166.125 22.3177C167.001 22.3177 167.787 22.0837 168.483 21.6157C169.179 21.1477 169.725 20.5297 170.121 19.7617C170.529 18.9937 170.733 18.1537 170.733 17.2417C170.733 16.3057 170.523 15.4537 170.103 14.6857C169.695 13.9057 169.137 13.2877 168.429 12.8317C167.733 12.3637 166.965 12.1297 166.125 12.1297C165.261 12.1297 164.481 12.3637 163.785 12.8317C163.089 13.2997 162.537 13.9237 162.129 14.7037C161.721 15.4837 161.517 16.3297 161.517 17.2417C161.517 18.1897 161.727 19.0477 162.147 19.8157C162.567 20.5837 163.125 21.1957 163.821 21.6517C164.529 22.0957 165.297 22.3177 166.125 22.3177ZM185.918 26.7097C184.262 26.7097 182.75 26.2837 181.382 25.4317C180.026 24.5797 178.94 23.4397 178.124 22.0117C177.32 20.5717 176.918 18.9817 176.918 17.2417C176.918 15.9217 177.152 14.6917 177.62 13.5517C178.088 12.3997 178.73 11.3917 179.546 10.5277C180.374 9.6517 181.334 8.9677 182.426 8.4757C183.518 7.9837 184.682 7.7377 185.918 7.7377C187.574 7.7377 189.08 8.1637 190.436 9.0157C191.804 9.8677 192.89 11.0137 193.694 12.4537C194.51 13.8937 194.918 15.4897 194.918 17.2417C194.918 18.5497 194.684 19.7737 194.216 20.9137C193.748 22.0537 193.1 23.0617 192.272 23.9377C191.456 24.8017 190.502 25.4797 189.41 25.9717C188.33 26.4637 187.166 26.7097 185.918 26.7097ZM185.918 22.3177C186.794 22.3177 187.58 22.0837 188.276 21.6157C188.972 21.1477 189.518 20.5297 189.914 19.7617C190.322 18.9937 190.526 18.1537 190.526 17.2417C190.526 16.3057 190.316 15.4537 189.896 14.6857C189.488 13.9057 188.93 13.2877 188.222 12.8317C187.526 12.3637 186.758 12.1297 185.918 12.1297C185.054 12.1297 184.274 12.3637 183.578 12.8317C182.882 13.2997 182.33 13.9237 181.922 14.7037C181.514 15.4837 181.31 16.3297 181.31 17.2417C181.31 18.1897 181.52 19.0477 181.94 19.8157C182.36 20.5837 182.918 21.1957 183.614 21.6517C184.322 22.0957 185.09 22.3177 185.918 22.3177ZM214.209 14.8657V26.2417H209.817V16.0177C209.817 15.3097 209.643 14.6677 209.295 14.0917C208.947 13.5037 208.479 13.0417 207.891 12.7057C207.315 12.3577 206.673 12.1837 205.965 12.1837C205.257 12.1837 204.609 12.3577 204.021 12.7057C203.445 13.0417 202.983 13.5037 202.635 14.0917C202.299 14.6677 202.131 15.3097 202.131 16.0177V26.2417H197.739L197.721 8.2417H202.113L202.131 9.8437C202.743 9.1957 203.475 8.6857 204.327 8.3137C205.179 7.9297 206.097 7.7377 207.081 7.7377C208.389 7.7377 209.583 8.0617 210.663 8.7097C211.743 9.3457 212.601 10.2037 213.237 11.2837C213.885 12.3517 214.209 13.5457 214.209 14.8657Z" fill="url(#paint1_angular_784_15200)" fill-opacity="0.2"/>
<defs>
<linearGradient id="paint0_linear_784_15200" x1="210.687" y1="-7.13511" x2="202.523" y2="59.992" gradientUnits="userSpaceOnUse">
<stop offset="0.0468721" stop-color="#007E99" stop-opacity="0.5"/>
<stop offset="0.218748" stop-color="#007E99" stop-opacity="0.91"/>
<stop offset="0.317707" stop-color="#007E99" stop-opacity="0.85"/>
<stop offset="0.5" stop-color="#007E99" stop-opacity="0.91"/>
<stop offset="0.708335" stop-color="#007E99" stop-opacity="0.5"/>
<stop offset="0.838544" stop-color="#007E99" stop-opacity="0.520203"/>
<stop offset="0.921878" stop-color="#007E99" stop-opacity="0.5"/>
</linearGradient>
<radialGradient id="paint1_angular_784_15200" cx="0" cy="0" r="1" gradientUnits="userSpaceOnUse" gradientTransform="translate(107.512 13.7417) rotate(90) scale(21.5 108.5)">
<stop stop-color="#007E99" stop-opacity="0.68"/>
<stop offset="1" stop-color="#007E99" stop-opacity="0.49"/>
</radialGradient>
</defs>
</svg>
