<svg width="57" height="57" viewBox="0 0 57 57" fill="none" xmlns="http://www.w3.org/2000/svg">
<circle cx="28.3174" cy="28.4092" r="28.3066" fill="#007E99"/>
<path d="M28.806 42.9821C20.8993 42.9821 14.4727 36.5554 14.4727 28.6488C14.4727 20.7421 20.8993 14.3154 28.806 14.3154C36.7127 14.3154 43.1393 20.7421 43.1393 28.6488C43.1393 36.5554 36.7127 42.9821 28.806 42.9821ZM28.806 16.3154C22.006 16.3154 16.4727 21.8488 16.4727 28.6488C16.4727 35.4488 22.006 40.9821 28.806 40.9821C35.606 40.9821 41.1393 35.4488 41.1393 28.6488C41.1393 21.8488 35.606 16.3154 28.806 16.3154Z" fill="#E6F2F5"/>
<path d="M33.7519 33.8888C33.5785 33.8888 33.4052 33.8488 33.2452 33.7421L29.1119 31.2754C28.0852 30.6621 27.3252 29.3154 27.3252 28.1288V22.6621C27.3252 22.1154 27.7785 21.6621 28.3252 21.6621C28.8719 21.6621 29.3252 22.1154 29.3252 22.6621V28.1288C29.3252 28.6088 29.7252 29.3154 30.1385 29.5554L34.2719 32.0221C34.7519 32.3021 34.8985 32.9154 34.6185 33.3954C34.4185 33.7154 34.0852 33.8888 33.7519 33.8888Z" fill="#E6F2F5"/>
</svg>
