<svg width="35" height="36" viewBox="0 0 35 36" fill="none" xmlns="http://www.w3.org/2000/svg">
<rect x="0.292969" y="0.845703" width="34.2921" height="34.2921" rx="17.1461" fill="#007E99"/>
<g clip-path="url(#clip0_4165_7588)">
<path d="M18.2915 9.69434C19.2252 9.69588 19.6984 9.70082 20.1073 9.71299L20.2683 9.71826C20.4543 9.72487 20.6378 9.73316 20.8591 9.74354C21.742 9.78432 22.3442 9.92399 22.8732 10.1293C23.42 10.3402 23.8819 10.6251 24.343 11.0862C24.8035 11.5474 25.0884 12.0106 25.3 12.5561C25.5046 13.0844 25.6443 13.6873 25.6858 14.5702C25.6956 14.7914 25.7036 14.9749 25.7101 15.161L25.7154 15.322C25.7275 15.7308 25.733 16.2041 25.7348 17.1378L25.7355 17.7565C25.7355 17.8321 25.7355 17.9101 25.7355 17.9905L25.7355 18.2246L25.735 18.8433C25.7334 19.777 25.7285 20.2502 25.7163 20.659L25.711 20.8201C25.7044 21.0061 25.6961 21.1896 25.6858 21.4109C25.6449 22.2937 25.5046 22.896 25.3 23.4249C25.0891 23.9718 24.8035 24.4336 24.343 24.8948C23.8819 25.3552 23.4179 25.6401 22.8732 25.8517C22.3442 26.0563 21.742 26.196 20.8591 26.2375C20.6378 26.2474 20.4543 26.2554 20.2683 26.2619L20.1073 26.2671C19.6984 26.2792 19.2252 26.2848 18.2915 26.2865L17.6728 26.2872C17.5972 26.2873 17.5193 26.2873 17.4388 26.2873L17.2047 26.2872L16.586 26.2867C15.6523 26.2851 15.1791 26.2802 14.7703 26.268L14.6092 26.2627C14.4232 26.2562 14.2397 26.2479 14.0184 26.2375C13.1355 26.1967 12.534 26.0563 12.0044 25.8517C11.4582 25.6408 10.9956 25.3552 10.5345 24.8948C10.0733 24.4336 9.78914 23.9697 9.57758 23.4249C9.37223 22.896 9.23326 22.2937 9.19178 21.4109C9.18192 21.1896 9.17388 21.0061 9.16737 20.8201L9.16215 20.659C9.15001 20.2502 9.14448 19.777 9.14269 18.8433L9.14258 17.1378C9.14412 16.2041 9.14906 15.7308 9.16123 15.322L9.1665 15.161C9.17311 14.9749 9.18141 14.7914 9.19178 14.5702C9.23256 13.6866 9.37223 13.0851 9.57758 12.5561C9.78845 12.0099 10.0733 11.5474 10.5345 11.0862C10.9956 10.6251 11.4589 10.3409 12.0044 10.1293C12.5333 9.92399 13.1348 9.78502 14.0184 9.74354C14.2397 9.73368 14.4232 9.72564 14.6092 9.71913L14.7703 9.71391C15.1791 9.70177 15.6523 9.69624 16.586 9.69444L18.2915 9.69434ZM17.4388 13.8421C15.1464 13.8421 13.2904 15.7002 13.2904 17.9905C13.2904 20.2828 15.1485 22.1389 17.4388 22.1389C19.7311 22.1389 21.5872 20.2808 21.5872 17.9905C21.5872 15.6982 19.729 13.8421 17.4388 13.8421ZM17.4388 15.5015C18.8135 15.5015 19.9278 16.6154 19.9278 17.9905C19.9278 19.3652 18.8138 20.4796 17.4388 20.4796C16.0641 20.4796 14.9497 19.3656 14.9497 17.9905C14.9497 16.6158 16.0637 15.5015 17.4388 15.5015ZM21.7946 12.5976C21.2227 12.5976 20.7575 13.0622 20.7575 13.634C20.7575 14.2059 21.222 14.6711 21.7946 14.6711C22.3664 14.6711 22.8317 14.2066 22.8317 13.634C22.8317 13.0622 22.3656 12.5969 21.7946 12.5976Z" fill="white"/>
</g>
<defs>
<clipPath id="clip0_4165_7588">
<rect width="17.6992" height="17.6992" fill="white" transform="translate(8.58984 9.1416)"/>
</clipPath>
</defs>
</svg>
