<svg width="35" height="35" viewBox="0 0 35 35" fill="none" xmlns="http://www.w3.org/2000/svg">
<rect y="0.0507812" width="34.2921" height="34.2921" rx="17.1461" fill="#007E99"/>
<g clip-path="url(#clip0_4165_7591)">
<path d="M22.9861 23.0394H20.5289V19.1891C20.5289 18.2709 20.5103 17.0894 19.2485 17.0894C17.9675 17.0894 17.7718 18.0885 17.7718 19.1213V23.0394H15.3146V15.1218H17.675V16.201H17.7068C18.0366 15.5787 18.8386 14.922 20.0367 14.922C22.5264 14.922 22.9868 16.5606 22.9868 18.6934L22.9861 23.0394ZM12.5395 14.0384C11.7485 14.0384 11.1132 13.3982 11.1132 12.6107C11.1132 11.8239 11.7492 11.1844 12.5395 11.1844C13.3276 11.1844 13.9665 11.8239 13.9665 12.6107C13.9665 13.3982 13.3269 14.0384 12.5395 14.0384ZM13.7715 23.0394H11.3074V15.1218H13.7715V23.0394ZM24.2154 8.89941H10.074C9.39718 8.89941 8.84961 9.43454 8.84961 10.0948V24.297C8.84961 24.9579 9.39718 25.4924 10.074 25.4924H24.2133C24.8895 25.4924 25.4426 24.9579 25.4426 24.297V10.0948C25.4426 9.43454 24.8895 8.89941 24.2133 8.89941H24.2154Z" fill="white"/>
</g>
<defs>
<clipPath id="clip0_4165_7591">
<rect width="17.6992" height="17.6992" fill="white" transform="translate(8.29688 8.34668)"/>
</clipPath>
</defs>
</svg>
