<svg width="224" height="80" viewBox="0 0 224 80" fill="none" xmlns="http://www.w3.org/2000/svg">
<path d="M12.9204 27.3823L23.4082 16.8938L39.8684 33.355L56.3285 16.8938L66.8164 27.3823L39.8684 54.332L12.9204 27.3823Z" fill="#006980"/>
<path d="M0 40.0535L10.4879 29.565L39.6209 58.6998L68.7539 29.565L79.2418 40.0535L39.6209 79.6768L0 40.0535Z" fill="#006980"/>
<path d="M25.8407 14.7111L40.1159 0.435059L54.3911 14.7111L40.1159 28.9872L25.8407 14.7111Z" fill="#007E99"/>
<path d="M95.5363 49.0026V27.9517H99.6864V44.8526H108.167V49.0026H95.5363Z" fill="#006980"/>
<path d="M116.954 49.3936C115.57 49.3936 114.307 49.0377 113.165 48.326C112.032 47.6143 111.125 46.6619 110.443 45.4691C109.771 44.2662 109.436 42.9379 109.436 41.4844C109.436 40.3817 109.631 39.3543 110.022 38.402C110.413 37.4396 110.949 36.5976 111.631 35.8758C112.323 35.1441 113.125 34.5727 114.037 34.1617C114.949 33.7507 115.921 33.5452 116.954 33.5452C118.337 33.5452 119.595 33.9011 120.728 34.6128C121.871 35.3245 122.778 36.2818 123.45 37.4847C124.131 38.6876 124.472 40.0209 124.472 41.4844C124.472 42.5771 124.277 43.5995 123.886 44.5518C123.495 45.5041 122.953 46.3462 122.262 47.078C121.58 47.7997 120.783 48.3661 119.871 48.7771C118.969 49.1881 117.996 49.3936 116.954 49.3936ZM116.954 45.2435C117.595 45.2435 118.172 45.0731 118.683 44.7323C119.194 44.3814 119.595 43.9203 119.886 43.3489C120.177 42.7775 120.322 42.156 120.322 41.4844C120.322 40.7927 120.167 40.1612 119.856 39.5898C119.555 39.0084 119.149 38.5473 118.638 38.2065C118.127 37.8657 117.565 37.6952 116.954 37.6952C116.322 37.6952 115.751 37.8707 115.24 38.2215C114.728 38.5724 114.322 39.0335 114.022 39.6049C113.731 40.1763 113.586 40.8028 113.586 41.4844C113.586 42.1961 113.736 42.8377 114.037 43.4091C114.347 43.9704 114.758 44.4165 115.27 44.7473C115.781 45.0781 116.342 45.2435 116.954 45.2435Z" fill="#006980"/>
<path d="M137.909 33.9662H142.059V49.0026H137.894L137.698 47.4388C137.307 48.0202 136.806 48.4914 136.195 48.8523C135.583 49.2131 134.866 49.3936 134.044 49.3936C132.922 49.3936 131.874 49.1831 130.902 48.762C129.929 48.341 129.072 47.7596 128.33 47.0178C127.589 46.276 127.007 45.4189 126.586 44.4466C126.175 43.4642 125.97 42.4117 125.97 41.2889C125.97 40.2163 126.165 39.2139 126.556 38.2817C126.947 37.3494 127.498 36.5274 128.21 35.8157C128.922 35.104 129.739 34.5476 130.661 34.1467C131.593 33.7457 132.596 33.5452 133.668 33.5452C134.591 33.5452 135.418 33.7407 136.149 34.1316C136.891 34.5226 137.538 35.0188 138.089 35.6202L137.909 33.9662ZM133.939 45.4089C134.621 45.4089 135.237 45.2335 135.789 44.8826C136.34 44.5318 136.776 44.0606 137.097 43.4692C137.417 42.8678 137.578 42.2062 137.578 41.4844C137.578 40.7526 137.417 40.091 137.097 39.4996C136.776 38.9082 136.34 38.437 135.789 38.0862C135.237 37.7353 134.621 37.5599 133.939 37.5599C133.247 37.5599 132.621 37.7353 132.059 38.0862C131.498 38.437 131.052 38.9132 130.721 39.5146C130.39 40.1061 130.225 40.7627 130.225 41.4844C130.225 42.2062 130.39 42.8678 130.721 43.4692C131.062 44.0606 131.513 44.5318 132.075 44.8826C132.636 45.2335 133.257 45.4089 133.939 45.4089Z" fill="#006980"/>
<path d="M159.049 39.4395V49.0026H154.899V40.5822C154.899 40.0509 154.769 39.5748 154.508 39.1538C154.257 38.7227 153.916 38.3819 153.485 38.1313C153.064 37.8807 152.593 37.7554 152.072 37.7554C151.551 37.7554 151.075 37.8807 150.644 38.1313C150.212 38.3819 149.872 38.7227 149.621 39.1538C149.37 39.5748 149.245 40.0509 149.245 40.5822V49.0026H145.095L145.08 33.9662H149.23L149.245 35.0789C149.746 34.5977 150.333 34.2218 151.004 33.9512C151.686 33.6805 152.403 33.5452 153.155 33.5452C154.247 33.5452 155.235 33.8108 156.117 34.3421C157.009 34.8734 157.721 35.5851 158.252 36.4773C158.783 37.3594 159.049 38.3468 159.049 39.4395Z" fill="#006980"/>
<path d="M167.017 49.0026L161.634 27.9517H165.919L169.347 41.4092L172.776 27.9517H176.58L180.008 41.4092L183.436 27.9517H187.722L182.369 49.0026H177.678L174.685 37.3043L171.708 49.0026H167.017Z" fill="#006980"/>
<path d="M189.602 33.9662H193.752V49.0026H189.602V33.9662ZM191.707 32.237C191.106 32.237 190.599 32.0365 190.188 31.6356C189.777 31.2346 189.572 30.7384 189.572 30.147C189.572 29.5555 189.777 29.0593 190.188 28.6584C190.599 28.2574 191.101 28.0569 191.692 28.0569C192.283 28.0569 192.78 28.2574 193.181 28.6584C193.592 29.0593 193.797 29.5555 193.797 30.147C193.797 30.7384 193.597 31.2346 193.196 31.6356C192.805 32.0365 192.308 32.237 191.707 32.237Z" fill="#006980"/>
<path d="M201.437 49.2733C200.665 49.2131 199.923 49.0527 199.212 48.7921C198.5 48.5215 197.863 48.1606 197.302 47.7095C196.751 47.2484 196.32 46.697 196.009 46.0555L199.497 44.5518C199.608 44.7122 199.773 44.8877 199.993 45.0781C200.214 45.2586 200.48 45.4189 200.79 45.5593C201.111 45.6996 201.482 45.7698 201.903 45.7698C202.214 45.7698 202.515 45.7347 202.805 45.6645C203.096 45.5843 203.332 45.459 203.512 45.2886C203.692 45.1082 203.783 44.8726 203.783 44.5819C203.783 44.2611 203.667 44.0155 203.437 43.8451C203.206 43.6747 202.926 43.5494 202.595 43.4692C202.274 43.379 201.963 43.3038 201.662 43.2437C200.74 43.0833 199.868 42.7976 199.046 42.3866C198.234 41.9656 197.573 41.4243 197.061 40.7627C196.55 40.1011 196.295 39.3092 196.295 38.3869C196.295 37.3745 196.56 36.5024 197.091 35.7706C197.623 35.0288 198.314 34.4574 199.166 34.0564C200.019 33.6555 200.941 33.455 201.933 33.455C203.106 33.455 204.194 33.7006 205.196 34.1918C206.198 34.683 207.005 35.3746 207.617 36.2668L204.339 38.2065C204.209 38.016 204.038 37.8356 203.828 37.6652C203.627 37.4847 203.392 37.3344 203.121 37.2141C202.86 37.0838 202.58 37.0086 202.279 36.9885C201.888 36.9585 201.532 36.9835 201.211 37.0637C200.891 37.1339 200.635 37.2692 200.445 37.4697C200.264 37.6702 200.174 37.9408 200.174 38.2817C200.174 38.6125 200.319 38.8581 200.61 39.0184C200.901 39.1688 201.236 39.2841 201.617 39.3643C201.998 39.4345 202.334 39.5197 202.625 39.6199C203.497 39.9006 204.314 40.2615 205.076 40.7025C205.848 41.1336 206.469 41.6649 206.94 42.2964C207.411 42.9279 207.632 43.6697 207.602 44.5218C207.602 45.5142 207.306 46.3863 206.715 47.1381C206.123 47.8799 205.356 48.4463 204.414 48.8372C203.482 49.2181 202.489 49.3635 201.437 49.2733Z" fill="#006980"/>
<path d="M216.482 49.3936C215.098 49.3936 213.835 49.0377 212.693 48.326C211.56 47.6143 210.653 46.6569 209.971 45.454C209.299 44.2511 208.964 42.9229 208.964 41.4694C208.964 40.3767 209.159 39.3543 209.55 38.402C209.941 37.4396 210.477 36.5976 211.159 35.8758C211.851 35.1441 212.653 34.5727 213.565 34.1617C214.477 33.7507 215.449 33.5452 216.482 33.5452C217.675 33.5452 218.762 33.8008 219.745 34.3121C220.737 34.8233 221.574 35.52 222.256 36.4021C222.947 37.2843 223.439 38.2817 223.729 39.3944C224.03 40.5071 224.08 41.6649 223.88 42.8678H213.444C213.575 43.3088 213.775 43.7098 214.046 44.0707C214.327 44.4215 214.667 44.7022 215.068 44.9127C215.479 45.1232 215.951 45.2335 216.482 45.2435C217.003 45.2535 217.484 45.1333 217.925 44.8826C218.366 44.632 218.742 44.2962 219.053 43.8752L223.293 44.8526C222.682 46.1858 221.77 47.2784 220.557 48.1305C219.344 48.9725 217.985 49.3936 216.482 49.3936ZM213.294 39.8003H219.685C219.554 39.2991 219.334 38.848 219.023 38.4471C218.712 38.0461 218.336 37.7303 217.895 37.4998C217.464 37.2692 216.993 37.1539 216.482 37.1539C215.981 37.1539 215.509 37.2692 215.068 37.4998C214.637 37.7303 214.266 38.0461 213.956 38.4471C213.655 38.838 213.434 39.2891 213.294 39.8003Z" fill="#006980"/>
</svg>
