<svg width="25" height="25" viewBox="0 0 25 25" fill="none" xmlns="http://www.w3.org/2000/svg">
<path d="M12.0107 23.1934C6.08074 23.1934 1.26074 18.3734 1.26074 12.4434C1.26074 6.51336 6.08074 1.69336 12.0107 1.69336C17.9407 1.69336 22.7607 6.51336 22.7607 12.4434C22.7607 18.3734 17.9407 23.1934 12.0107 23.1934ZM12.0107 3.19336C6.91074 3.19336 2.76074 7.34336 2.76074 12.4434C2.76074 17.5434 6.91074 21.6934 12.0107 21.6934C17.1107 21.6934 21.2607 17.5434 21.2607 12.4434C21.2607 7.34336 17.1107 3.19336 12.0107 3.19336Z" fill="#005466"/>
<path d="M10.5912 16.023C10.3912 16.023 10.2012 15.943 10.0612 15.803L7.23117 12.973C6.94117 12.683 6.94117 12.203 7.23117 11.913C7.52117 11.623 8.00117 11.623 8.29117 11.913L10.5912 14.213L15.7312 9.07297C16.0212 8.78297 16.5012 8.78297 16.7912 9.07297C17.0812 9.36297 17.0812 9.84297 16.7912 10.133L11.1212 15.803C10.9812 15.943 10.7912 16.023 10.5912 16.023Z" fill="#005466"/>
</svg>
