<svg width="35" height="36" viewBox="0 0 35 36" fill="none" xmlns="http://www.w3.org/2000/svg">
<rect x="0.583984" y="0.973633" width="34.2918" height="34.4235" rx="17.1459" fill="#007E99"/>
<path d="M25.1276 13.5967C24.5735 13.8418 23.9859 14.0028 23.3842 14.0744C24.0181 13.6949 24.4924 13.098 24.7188 12.3947C24.1232 12.7486 23.4713 12.9977 22.7914 13.1311C22.2175 12.5189 21.4153 12.1719 20.5761 12.1729C18.9001 12.1729 17.5407 13.5318 17.5407 15.2086C17.5407 15.4465 17.5679 15.6772 17.619 15.8998C15.0952 15.7727 12.8593 14.565 11.3617 12.7282C11.0921 13.1914 10.9504 13.718 10.9511 14.254C10.9511 15.3072 11.4872 16.2367 12.3015 16.7809C11.8194 16.7656 11.348 16.6355 10.9265 16.4011C10.9261 16.4138 10.9261 16.4266 10.9261 16.4386C10.9261 17.9098 11.9725 19.1371 13.3615 19.4157C13.1008 19.4863 12.8319 19.5219 12.5618 19.5217C12.3657 19.5217 12.1753 19.5036 11.9903 19.4681C12.3768 20.6739 13.4972 21.5517 14.826 21.5758C13.7507 22.4197 12.4228 22.8776 11.0559 22.8756C10.814 22.8758 10.5723 22.8615 10.332 22.8329C11.7198 23.725 13.3351 24.1985 14.9848 24.1967C20.5687 24.1967 23.6219 19.5713 23.6219 15.5601C23.6219 15.4289 23.6187 15.2972 23.6129 15.1674C24.2071 14.738 24.72 14.2061 25.1276 13.5967Z" fill="white"/>
</svg>
