<svg width="24" height="24" viewBox="0 0 24 24" fill="none" xmlns="http://www.w3.org/2000/svg">
<path d="M11.893 0.480469C5.47447 0.480469 0.244141 5.7108 0.244141 12.1293C0.244141 18.5478 5.47447 23.7781 11.893 23.7781C18.3115 23.7781 23.5418 18.5478 23.5418 12.1293C23.5418 5.7108 18.3115 0.480469 11.893 0.480469ZM17.4611 9.45008L10.8562 16.055C10.6931 16.2181 10.4718 16.3112 10.2388 16.3112C10.0059 16.3112 9.78454 16.2181 9.62146 16.055L6.32483 12.7583C5.98702 12.4205 5.98702 11.8614 6.32483 11.5236C6.66265 11.1858 7.2218 11.1858 7.55961 11.5236L10.2388 14.2028L16.2263 8.2153C16.5642 7.87748 17.1233 7.87748 17.4611 8.2153C17.7989 8.55312 17.7989 9.10061 17.4611 9.45008Z" fill="#007E99"/>
</svg>
