<svg width="41" height="41" viewBox="0 0 41 41" fill="none" xmlns="http://www.w3.org/2000/svg">
<path d="M25.4606 37.9925H15.4606C6.41061 37.9925 2.54395 34.1258 2.54395 25.0758V15.0758C2.54395 6.02585 6.41061 2.15918 15.4606 2.15918H25.4606C34.5106 2.15918 38.3773 6.02585 38.3773 15.0758V25.0758C38.3773 34.1258 34.5273 37.9925 25.4606 37.9925ZM15.4606 4.65918C7.77728 4.65918 5.04395 7.39251 5.04395 15.0758V25.0758C5.04395 32.7592 7.77728 35.4925 15.4606 35.4925H25.4606C33.1439 35.4925 35.8773 32.7592 35.8773 25.0758V15.0758C35.8773 7.39251 33.1439 4.65918 25.4606 4.65918H15.4606Z" fill="#00191F"/>
<path d="M19.5938 30.1763C19.1938 30.1763 18.2271 30.0263 17.6605 28.5763L15.7605 23.7763C15.4938 23.093 14.5438 22.4596 13.8271 22.4596L3.82715 22.493C3.14382 22.493 2.57715 21.943 2.57715 21.243C2.57715 20.5596 3.12715 19.993 3.82715 19.993L13.8271 19.9596H13.8438C15.5938 19.9596 17.4605 21.2263 18.1105 22.8596L19.6271 26.693L23.0605 17.993C23.5771 16.693 24.4938 16.5096 24.8771 16.4763C25.2605 16.4596 26.1938 16.543 26.8438 17.7763L28.5772 21.0596C28.8771 21.6263 29.7772 22.1763 30.4272 22.1763H37.1938C37.8772 22.1763 38.4438 22.743 38.4438 23.4263C38.4438 24.1096 37.8772 24.6763 37.1938 24.6763H30.4272C28.8438 24.6763 27.1105 23.6263 26.3772 22.2263L25.0772 19.7596L21.5772 28.5763C20.9605 30.0096 19.9771 30.1763 19.5938 30.1763Z" fill="#00191F"/>
</svg>
