<svg width="76" height="76" viewBox="0 0 76 76" fill="none" xmlns="http://www.w3.org/2000/svg">
<rect x="0.0107422" y="0.576172" width="75" height="75" rx="33" fill="#80BFCC"/>
<path d="M52.5107 55.9932H22.5107C21.8274 55.9932 21.2607 55.4265 21.2607 54.7432C21.2607 54.0598 21.8274 53.4932 22.5107 53.4932H52.5107C53.1941 53.4932 53.7607 54.0598 53.7607 54.7432C53.7607 55.4265 53.1941 55.9932 52.5107 55.9932Z" fill="#00191F"/>
<path d="M26.844 50.993H24.1774C22.5774 50.993 21.2607 49.6763 21.2607 48.0763V33.7096C21.2607 32.1096 22.5774 30.793 24.1774 30.793H26.844C28.444 30.793 29.7607 32.1096 29.7607 33.7096V48.0763C29.7607 49.6763 28.444 50.993 26.844 50.993ZM24.1774 33.2763C23.9441 33.2763 23.7607 33.4596 23.7607 33.693V48.0763C23.7607 48.3096 23.9441 48.493 24.1774 48.493H26.844C27.0774 48.493 27.2607 48.3096 27.2607 48.0763V33.7096C27.2607 33.4763 27.0774 33.293 26.844 33.293H24.1774V33.2763Z" fill="#00191F"/>
<path d="M38.844 50.9932H36.1774C34.5774 50.9932 33.2607 49.6766 33.2607 48.0766V28.3932C33.2607 26.7932 34.5774 25.4766 36.1774 25.4766H38.844C40.444 25.4766 41.7607 26.7932 41.7607 28.3932V48.0766C41.7607 49.6766 40.444 50.9932 38.844 50.9932ZM36.1774 27.9766C35.9441 27.9766 35.7607 28.1599 35.7607 28.3932V48.0766C35.7607 48.3099 35.9441 48.4932 36.1774 48.4932H38.844C39.0774 48.4932 39.2607 48.3099 39.2607 48.0766V28.3932C39.2607 28.1599 39.0774 27.9766 38.844 27.9766H36.1774Z" fill="#00191F"/>
<path d="M50.844 50.9925H48.1774C46.5774 50.9925 45.2607 49.6758 45.2607 48.0758V23.0758C45.2607 21.4758 46.5774 20.1592 48.1774 20.1592H50.844C52.444 20.1592 53.7607 21.4758 53.7607 23.0758V48.0758C53.7607 49.6758 52.444 50.9925 50.844 50.9925ZM48.1774 22.6592C47.9441 22.6592 47.7607 22.8425 47.7607 23.0758V48.0758C47.7607 48.3092 47.9441 48.4925 48.1774 48.4925H50.844C51.0774 48.4925 51.2607 48.3092 51.2607 48.0758V23.0758C51.2607 22.8425 51.0774 22.6592 50.844 22.6592H48.1774Z" fill="#00191F"/>
</svg>
