<svg width="76" height="76" viewBox="0 0 76 76" fill="none" xmlns="http://www.w3.org/2000/svg">
<rect x="0.0107422" y="0.576172" width="75" height="75" rx="33" fill="#80BFCC"/>
<path d="M47.1604 55.9759H27.8604C23.2938 55.9759 19.5938 52.2592 19.5938 47.6925V35.3425C19.5938 33.0759 20.9938 30.2259 22.7938 28.8259L31.7771 21.8259C34.4771 19.7259 38.7938 19.6259 41.5938 21.5925L51.8937 28.8092C53.8771 30.1925 55.4271 33.1592 55.4271 35.5759V47.7092C55.4271 52.2592 51.7271 55.9759 47.1604 55.9759ZM33.3104 23.7925L24.3271 30.7925C23.1438 31.7259 22.0938 33.8425 22.0938 35.3425V47.6925C22.0938 50.8759 24.6771 53.4759 27.8604 53.4759H47.1604C50.3438 53.4759 52.9271 50.8925 52.9271 47.7092V35.5759C52.9271 33.9759 51.7771 31.7592 50.4604 30.8592L40.1604 23.6425C38.2604 22.3092 35.1271 22.3759 33.3104 23.7925Z" fill="#00191F"/>
<path d="M40.0107 49.3262H35.0107C31.5607 49.3262 28.7607 46.5262 28.7607 43.0762V38.0762C28.7607 34.6262 31.5607 31.8262 35.0107 31.8262H40.0107C43.4607 31.8262 46.2607 34.6262 46.2607 38.0762V43.0762C46.2607 46.5262 43.4607 49.3262 40.0107 49.3262ZM35.0107 34.3262C32.9441 34.3262 31.2607 36.0095 31.2607 38.0762V43.0762C31.2607 45.1428 32.9441 46.8262 35.0107 46.8262H40.0107C42.0774 46.8262 43.7607 45.1428 43.7607 43.0762V38.0762C43.7607 36.0095 42.0774 34.3262 40.0107 34.3262H35.0107Z" fill="#00191F"/>
<path d="M37.5107 49.3262C36.8274 49.3262 36.2607 48.7595 36.2607 48.0762V33.0762C36.2607 32.3928 36.8274 31.8262 37.5107 31.8262C38.1941 31.8262 38.7607 32.3928 38.7607 33.0762V48.0762C38.7607 48.7595 38.1941 49.3262 37.5107 49.3262Z" fill="#00191F"/>
<path d="M45.0107 41.8262H30.0107C29.3274 41.8262 28.7607 41.2595 28.7607 40.5762C28.7607 39.8928 29.3274 39.3262 30.0107 39.3262H45.0107C45.6941 39.3262 46.2607 39.8928 46.2607 40.5762C46.2607 41.2595 45.6941 41.8262 45.0107 41.8262Z" fill="#00191F"/>
</svg>
