<svg width="76" height="76" viewBox="0 0 76 76" fill="none" xmlns="http://www.w3.org/2000/svg">
<rect x="0.0107422" y="0.576172" width="75" height="75" rx="33" fill="#80BFCC"/>
<path d="M27.2705 51.8763C26.4505 51.8763 25.7705 51.1963 25.7705 50.3763V46.2363C25.7705 45.4163 26.4505 44.7363 27.2705 44.7363C28.0905 44.7363 28.7705 45.4163 28.7705 46.2363V50.3763C28.7705 51.2163 28.0905 51.8763 27.2705 51.8763Z" fill="#003F4D"/>
<path d="M37.5107 51.8762C36.6907 51.8762 36.0107 51.1962 36.0107 50.3762V42.0762C36.0107 41.2562 36.6907 40.5762 37.5107 40.5762C38.3307 40.5762 39.0107 41.2562 39.0107 42.0762V50.3762C39.0107 51.2162 38.3307 51.8762 37.5107 51.8762Z" fill="#003F4D"/>
<path d="M47.751 51.8765C46.931 51.8765 46.251 51.1965 46.251 50.3765V37.9365C46.251 37.1165 46.931 36.4365 47.751 36.4365C48.571 36.4365 49.251 37.1165 49.251 37.9365V50.3765C49.251 51.2165 48.591 51.8765 47.751 51.8765Z" fill="#003F4D"/>
<path d="M27.2709 40.436C26.5909 40.436 25.9909 39.976 25.8109 39.296C25.6109 38.496 26.0909 37.676 26.9109 37.476C34.2709 35.636 40.7509 31.616 45.6909 25.876L46.6109 24.796C47.1509 24.176 48.0909 24.096 48.7309 24.636C49.3509 25.176 49.4309 26.116 48.8909 26.756L47.9709 27.836C42.6309 34.076 35.5909 38.416 27.6309 40.396C27.5109 40.436 27.3909 40.436 27.2709 40.436Z" fill="#003F4D"/>
<path d="M47.7506 33.1164C46.9306 33.1164 46.2506 32.4364 46.2506 31.6164V27.2764H41.8906C41.0706 27.2764 40.3906 26.5964 40.3906 25.7764C40.3906 24.9564 41.0706 24.2764 41.8906 24.2764H47.7506C48.5706 24.2764 49.2506 24.9564 49.2506 25.7764V31.6364C49.2506 32.4564 48.5906 33.1164 47.7506 33.1164Z" fill="#003F4D"/>
<path d="M43.5107 59.5762H31.5107C20.6507 59.5762 16.0107 54.9362 16.0107 44.0762V32.0762C16.0107 21.2162 20.6507 16.5762 31.5107 16.5762H43.5107C54.3707 16.5762 59.0107 21.2162 59.0107 32.0762V44.0762C59.0107 54.9362 54.3707 59.5762 43.5107 59.5762ZM31.5107 19.5762C22.2907 19.5762 19.0107 22.8562 19.0107 32.0762V44.0762C19.0107 53.2962 22.2907 56.5762 31.5107 56.5762H43.5107C52.7307 56.5762 56.0107 53.2962 56.0107 44.0762V32.0762C56.0107 22.8562 52.7307 19.5762 43.5107 19.5762H31.5107Z" fill="#003F4D"/>
</svg>
