<svg width="76" height="76" viewBox="0 0 76 76" fill="none" xmlns="http://www.w3.org/2000/svg">
<rect x="0.0107422" y="0.576172" width="75" height="75" rx="33" fill="#80BFCC"/>
<path d="M42.4606 55.9925H32.4606C23.4106 55.9925 19.5439 52.1258 19.5439 43.0758V33.0758C19.5439 24.0258 23.4106 20.1592 32.4606 20.1592H42.4606C51.5106 20.1592 55.3773 24.0258 55.3773 33.0758V43.0758C55.3773 52.1258 51.5273 55.9925 42.4606 55.9925ZM32.4606 22.6592C24.7773 22.6592 22.0439 25.3925 22.0439 33.0758V43.0758C22.0439 50.7592 24.7773 53.4925 32.4606 53.4925H42.4606C50.1439 53.4925 52.8773 50.7592 52.8773 43.0758V33.0758C52.8773 25.3925 50.1439 22.6592 42.4606 22.6592H32.4606Z" fill="#00191F"/>
<path d="M36.5938 48.1763C36.1938 48.1763 35.2271 48.0263 34.6605 46.5763L32.7605 41.7763C32.4938 41.093 31.5438 40.4596 30.8271 40.4596L20.8271 40.493C20.1438 40.493 19.5771 39.943 19.5771 39.243C19.5771 38.5596 20.1271 37.993 20.8271 37.993L30.8271 37.9596H30.8438C32.5938 37.9596 34.4605 39.2263 35.1105 40.8596L36.6271 44.693L40.0605 35.993C40.5771 34.693 41.4938 34.5096 41.8771 34.4763C42.2605 34.4596 43.1938 34.543 43.8438 35.7763L45.5772 39.0596C45.8771 39.6263 46.7772 40.1763 47.4272 40.1763H54.1938C54.8772 40.1763 55.4438 40.743 55.4438 41.4263C55.4438 42.1096 54.8772 42.6763 54.1938 42.6763H47.4272C45.8438 42.6763 44.1105 41.6263 43.3772 40.2263L42.0772 37.7596L38.5772 46.5763C37.9605 48.0096 36.9771 48.1763 36.5938 48.1763Z" fill="#00191F"/>
</svg>
