<svg width="49" height="49" viewBox="0 0 49 49" fill="none" xmlns="http://www.w3.org/2000/svg">
<path d="M14.2705 37.8763C13.4505 37.8763 12.7705 37.1963 12.7705 36.3763V32.2363C12.7705 31.4163 13.4505 30.7363 14.2705 30.7363C15.0905 30.7363 15.7705 31.4163 15.7705 32.2363V36.3763C15.7705 37.2163 15.0905 37.8763 14.2705 37.8763Z" fill="#003F4D"/>
<path d="M24.5107 37.8762C23.6907 37.8762 23.0107 37.1962 23.0107 36.3762V28.0762C23.0107 27.2562 23.6907 26.5762 24.5107 26.5762C25.3307 26.5762 26.0107 27.2562 26.0107 28.0762V36.3762C26.0107 37.2162 25.3307 37.8762 24.5107 37.8762Z" fill="#003F4D"/>
<path d="M34.751 37.8765C33.931 37.8765 33.251 37.1965 33.251 36.3765V23.9365C33.251 23.1165 33.931 22.4365 34.751 22.4365C35.571 22.4365 36.251 23.1165 36.251 23.9365V36.3765C36.251 37.2165 35.591 37.8765 34.751 37.8765Z" fill="#003F4D"/>
<path d="M14.2709 26.436C13.5909 26.436 12.9909 25.976 12.8109 25.296C12.6109 24.496 13.0909 23.676 13.9109 23.476C21.2709 21.636 27.7509 17.616 32.6909 11.876L33.6109 10.796C34.1509 10.176 35.0909 10.096 35.7309 10.636C36.3509 11.176 36.4309 12.116 35.8909 12.756L34.9709 13.836C29.6309 20.076 22.5909 24.416 14.6309 26.396C14.5109 26.436 14.3909 26.436 14.2709 26.436Z" fill="#003F4D"/>
<path d="M34.7506 19.1164C33.9306 19.1164 33.2506 18.4364 33.2506 17.6164V13.2764H28.8906C28.0706 13.2764 27.3906 12.5964 27.3906 11.7764C27.3906 10.9564 28.0706 10.2764 28.8906 10.2764H34.7506C35.5706 10.2764 36.2506 10.9564 36.2506 11.7764V17.6364C36.2506 18.4564 35.5906 19.1164 34.7506 19.1164Z" fill="#003F4D"/>
<path d="M30.5107 45.5762H18.5107C7.65074 45.5762 3.01074 40.9362 3.01074 30.0762V18.0762C3.01074 7.21617 7.65074 2.57617 18.5107 2.57617H30.5107C41.3707 2.57617 46.0107 7.21617 46.0107 18.0762V30.0762C46.0107 40.9362 41.3707 45.5762 30.5107 45.5762ZM18.5107 5.57617C9.29074 5.57617 6.01074 8.85617 6.01074 18.0762V30.0762C6.01074 39.2962 9.29074 42.5762 18.5107 42.5762H30.5107C39.7307 42.5762 43.0107 39.2962 43.0107 30.0762V18.0762C43.0107 8.85617 39.7307 5.57617 30.5107 5.57617H18.5107Z" fill="#003F4D"/>
</svg>
